<svg id="Layer_1" data-name="Layer 1" xmlns="http://www.w3.org/2000/svg" viewBox="0 0 269.36 175.52">
  <title>Orange CU Cyber Logo NO TEXT</title>
  <g>
    <polygon points="216 43.34 159.34 43.34 159.34 39.83 214.52 39.83 230.05 23.89 254.6 23.89 254.6 27.4 231.53 27.4 216 43.34" style="fill: #ea6a20"/>
    <polygon points="215.48 58.23 158.83 58.23 158.83 54.71 214 54.71 229.53 38.77 254.09 38.77 254.09 42.28 231.01 42.28 215.48 58.23" style="fill: #ea6a20"/>
    <polygon points="221.18 69.92 159.34 69.92 159.34 66.4 219.69 66.4 234.45 51.26 236.96 53.71 221.18 69.92" style="fill: #ea6a20"/>
    <polygon points="250.35 151.87 222.63 151.87 205.02 135.92 142.35 135.92 142.35 132.19 206.46 132.19 224.07 148.13 250.35 148.13 250.35 151.87" style="fill: #ea6a20"/>
    <polygon points="249.83 136.93 223.83 136.93 207.34 120.98 148.73 120.98 148.73 117.37 208.8 117.37 225.29 133.31 249.83 133.31 249.83 136.93" style="fill: #ea6a20"/>
    <polygon points="230.2 124.39 215.44 109.24 155.09 109.24 155.09 105.73 216.92 105.73 232.71 121.94 230.2 124.39" style="fill: #ea6a20"/>
    <g>
      <path d="M419.31,351.4" transform="translate(-170.15 -271.02)" style="fill: #ea6a20"/>
      <path d="M335.88,351.4" transform="translate(-170.15 -271.02)" style="fill: #ea6a20"/>
      <rect x="165.74" y="78.6" width="83.43" height="3.56" style="fill: #ea6a20"/>
    </g>
    <g>
      <path d="M430.85,365.75" transform="translate(-170.15 -271.02)" style="fill: #ea6a20"/>
      <path d="M333.23,365.75" transform="translate(-170.15 -271.02)" style="fill: #ea6a20"/>
      <rect x="163.08" y="92.95" width="97.63" height="3.56" style="fill: #ea6a20"/>
    </g>
    <path d="M422.63,355a4.83,4.83,0,1,1,4.75-4.83A4.8,4.8,0,0,1,422.63,355Zm0-7.63a2.79,2.79,0,1,0,2.62,2.78A2.7,2.7,0,0,0,422.62,347.37Z" transform="translate(-170.15 -271.02)" style="fill: #ea6a20;stroke: #ea6a20;stroke-miterlimit: 10;stroke-width: 1.21953313908497px"/>
    <path d="M408.64,326.5a4.84,4.84,0,1,1,4.74-4.83A4.8,4.8,0,0,1,408.64,326.5Zm0-7.64a2.8,2.8,0,1,0,2.61,2.79A2.71,2.71,0,0,0,408.63,318.86Z" transform="translate(-170.15 -271.02)" style="fill: #ea6a20;stroke: #ea6a20;stroke-miterlimit: 10;stroke-width: 1.21953313908497px"/>
    <path d="M428.21,316.35a4.83,4.83,0,1,1,4.74-4.83A4.8,4.8,0,0,1,428.21,316.35Zm0-7.63a2.79,2.79,0,1,0,2.62,2.78A2.7,2.7,0,0,0,428.19,308.72Z" transform="translate(-170.15 -271.02)" style="fill: #ea6a20;stroke: #ea6a20;stroke-miterlimit: 10;stroke-width: 1.21953313908497px"/>
    <path d="M428,301.37a4.83,4.83,0,1,1,4.75-4.83A4.79,4.79,0,0,1,428,301.37Zm0-7.63a2.79,2.79,0,1,0,2.62,2.79A2.71,2.71,0,0,0,428,293.74Z" transform="translate(-170.15 -271.02)" style="fill: #ea6a20;stroke: #ea6a20;stroke-miterlimit: 10;stroke-width: 1.21953313908497px"/>
    <path d="M183.72,301.87a4.83,4.83,0,1,1,4.74-4.83A4.79,4.79,0,0,1,183.72,301.87Zm0-7.63a2.79,2.79,0,1,0,2.61,2.79A2.71,2.71,0,0,0,183.71,294.24Z" transform="translate(-170.15 -271.02)" style="fill: #ea6a20;stroke: #ea6a20;stroke-miterlimit: 10;stroke-width: 1.21953313908497px"/>
    <path d="M184.2,316.13a4.84,4.84,0,1,1,4.75-4.84A4.8,4.8,0,0,1,184.2,316.13Zm0-7.64a2.79,2.79,0,1,0,2.62,2.79A2.71,2.71,0,0,0,184.19,308.49Z" transform="translate(-170.15 -271.02)" style="fill: #ea6a20;stroke: #ea6a20;stroke-miterlimit: 10;stroke-width: 1.21953313908497px"/>
    <path d="M204,326.27a4.83,4.83,0,1,1,4.74-4.83A4.8,4.8,0,0,1,204,326.27Zm0-7.63a2.79,2.79,0,1,0,2.61,2.78A2.7,2.7,0,0,0,204,318.64Z" transform="translate(-170.15 -271.02)" style="fill: #ea6a20;stroke: #ea6a20;stroke-miterlimit: 10;stroke-width: 1.21953313908497px"/>
    <path d="M175.5,370.72a4.83,4.83,0,1,1,4.75-4.83A4.8,4.8,0,0,1,175.5,370.72Zm0-7.64a2.8,2.8,0,1,0,2.62,2.79A2.71,2.71,0,0,0,175.49,363.08Z" transform="translate(-170.15 -271.02)" style="fill: #ea6a20;stroke: #ea6a20;stroke-miterlimit: 10;stroke-width: 1.21953313908497px"/>
    <path d="M188.55,410.82a4.84,4.84,0,1,1,4.74-4.84A4.8,4.8,0,0,1,188.55,410.82Zm0-7.64a2.79,2.79,0,1,0,2.61,2.79A2.71,2.71,0,0,0,188.54,403.18Z" transform="translate(-170.15 -271.02)" style="fill: #ea6a20;stroke: #ea6a20;stroke-miterlimit: 10;stroke-width: 1.21953313908497px"/>
    <path d="M188.19,426.21a4.83,4.83,0,1,1,4.74-4.83A4.79,4.79,0,0,1,188.19,426.21Zm0-7.63a2.79,2.79,0,1,0,2.61,2.79A2.71,2.71,0,0,0,188.18,418.58Z" transform="translate(-170.15 -271.02)" style="fill: #ea6a20;stroke: #ea6a20;stroke-miterlimit: 10;stroke-width: 1.21953313908497px"/>
    <path d="M208.11,401.58a4.84,4.84,0,1,1,4.75-4.84A4.8,4.8,0,0,1,208.11,401.58Zm0-7.64a2.79,2.79,0,1,0,2.62,2.79A2.71,2.71,0,0,0,208.1,393.94Z" transform="translate(-170.15 -271.02)" style="fill: #ea6a20;stroke: #ea6a20;stroke-miterlimit: 10;stroke-width: 1.21953313908497px"/>
    <path d="M189,356.22a4.83,4.83,0,1,1,4.75-4.83A4.79,4.79,0,0,1,189,356.22Zm0-7.63a2.79,2.79,0,1,0,2.62,2.79A2.71,2.71,0,0,0,189,348.59Z" transform="translate(-170.15 -271.02)" style="fill: #ea6a20;stroke: #ea6a20;stroke-miterlimit: 10;stroke-width: 1.21953313908497px"/>
    <path d="M434.16,370.7a4.83,4.83,0,1,1,4.74-4.83A4.8,4.8,0,0,1,434.16,370.7Zm0-7.63a2.79,2.79,0,1,0,2.61,2.78A2.7,2.7,0,0,0,434.15,363.07Z" transform="translate(-170.15 -271.02)" style="fill: #ea6a20;stroke: #ea6a20;stroke-miterlimit: 10;stroke-width: 1.21953313908497px"/>
    <path d="M404.2,401.62a4.83,4.83,0,1,1,4.75-4.83A4.8,4.8,0,0,1,404.2,401.62Zm0-7.63a2.79,2.79,0,1,0,2.62,2.78A2.7,2.7,0,0,0,404.19,394Z" transform="translate(-170.15 -271.02)" style="fill: #ea6a20;stroke: #ea6a20;stroke-miterlimit: 10;stroke-width: 1.21953313908497px"/>
    <path d="M424,425.78a4.84,4.84,0,1,1,4.75-4.84A4.8,4.8,0,0,1,424,425.78Zm0-7.64a2.79,2.79,0,1,0,2.62,2.79A2.71,2.71,0,0,0,424,418.14Z" transform="translate(-170.15 -271.02)" style="fill: #ea6a20;stroke: #ea6a20;stroke-miterlimit: 10;stroke-width: 1.21953313908497px"/>
    <path d="M423.53,411.28a4.83,4.83,0,1,1,4.74-4.83A4.79,4.79,0,0,1,423.53,411.28Zm0-7.63a2.79,2.79,0,1,0,2.61,2.78A2.7,2.7,0,0,0,423.52,403.65Z" transform="translate(-170.15 -271.02)" style="fill: #ea6a20;stroke: #ea6a20;stroke-miterlimit: 10;stroke-width: 1.21953313908497px"/>
    <polygon points="112.36 43.34 55.7 43.34 40.17 27.4 17.1 27.4 17.1 23.89 41.66 23.89 57.19 39.83 112.36 39.83 112.36 43.34" style="fill: #ea6a20"/>
    <polygon points="112.88 58.23 56.22 58.23 40.69 42.28 17.62 42.28 17.62 38.77 42.17 38.77 57.7 54.71 112.88 54.71 112.88 58.23" style="fill: #ea6a20"/>
    <polygon points="112.36 69.92 50.53 69.92 34.74 53.71 37.25 51.26 52.01 66.4 112.36 66.4 112.36 69.92" style="fill: #ea6a20"/>
    <polygon points="49.07 151.87 21.35 151.87 21.35 148.13 47.63 148.13 65.24 132.19 129.35 132.19 129.35 135.92 66.68 135.92 49.07 151.87" style="fill: #ea6a20"/>
    <polygon points="47.88 136.93 21.87 136.93 21.87 133.31 46.41 133.31 62.9 117.37 122.97 117.37 122.97 120.98 64.36 120.98 47.88 136.93" style="fill: #ea6a20"/>
    <polygon points="41.51 124.39 38.99 121.94 54.78 105.73 116.61 105.73 116.61 109.24 56.26 109.24 41.51 124.39" style="fill: #ea6a20"/>
    <g>
      <path d="M192.69,351.4" transform="translate(-170.15 -271.02)" style="fill: #ea6a20"/>
      <path d="M276.12,351.4" transform="translate(-170.15 -271.02)" style="fill: #ea6a20"/>
      <rect x="22.54" y="78.6" width="83.43" height="3.56" style="fill: #ea6a20"/>
    </g>
    <g>
      <path d="M179.26,365.75" transform="translate(-170.15 -271.02)" style="fill: #ea6a20"/>
      <path d="M278.77,365.75" transform="translate(-170.15 -271.02)" style="fill: #ea6a20"/>
      <rect x="9.11" y="92.95" width="99.51" height="3.56" style="fill: #ea6a20"/>
    </g>
    <path d="M305.09,446.53a7,7,0,0,1-2.81-.62,45.29,45.29,0,0,1-10.94-7.33c-3.47-3-8-6.89-12.36-11.05-3.06-2.94-6.14-6.21-9.42-10-3.65-4.23-6.79-8.14-9.6-11.94s-5.57-7.9-8.4-12.48c-2-3.24-3.68-6.57-5.36-10-1.49-3.05-2.87-6.18-4.1-9.31-1-2.66-1.87-5.4-2.66-8-1-3.27-1.77-6.14-2.45-8.88-1-3.85-1.63-6.84-2.17-9.69-.83-4.3-1.59-8.7-2.34-13.45a88.31,88.31,0,0,1-.83-14.44c0-1.25,0-2.5,0-3.75s-.06-2.3-.05-3.45c0-3.05.06-6.24.15-9.73,0-.73,0-2.77,0-2.77l-.05-2.45,2.35-.68,1.73-.5c1.5-.41,3-.77,4.52-1.14,1.76-.43,3.59-.88,5.33-1.37,2.92-.83,6.77-2,10.56-3.31,7.51-2.68,14.3-5.19,20.74-7.68,2.47-1,5-2.09,7.39-3.19,1-.44,1.92-.88,2.89-1.3l6-2.69,5.12-2.3a31.76,31.76,0,0,1,3-1.29,10.83,10.83,0,0,1,7.67,0c2.12.84,4.19,1.79,6.19,2.71l3.15,1.44,1.55.68c3.75,1.66,7.63,3.38,11.46,5l.76.32c3.48,1.47,7.07,3,10.63,4.29,4.7,1.7,10.92,3.91,17.3,5.89,2.87.89,5.87,1.66,8.77,2.42,1.95.5,3.9,1,5.83,1.55.46.13,1.68.4,1.69.4l2.49.57v2.55c0,1.14,0,4.38.09,5.7.13,2,.19,4,.24,5.95,0,.82,0,1.63.08,2.42v.22c0,.94-.05,1.88-.07,2.81,0,2.07-.09,4.22-.25,6.35-.23,3.15-.59,6.32-1.07,9.43l-.24,1.56c-.81,5.22-1.64,10.61-2.71,15.9a157.77,157.77,0,0,1-5.74,21.31c-1.05,3-2.36,5.95-3.63,8.78-.39.88-.79,1.76-1.17,2.65a101.66,101.66,0,0,1-8.75,15.54c-2.36,3.56-5.05,7.24-8.72,11.93-2.6,3.34-5.48,6.75-8.56,10.15a153.38,153.38,0,0,1-15.57,15.15l-1.35,1.14c-1.89,1.58-3.84,3.23-5.89,4.75a34.59,34.59,0,0,1-7.64,4.69A7.36,7.36,0,0,1,305.09,446.53Z" transform="translate(-170.15 -271.02)" style="fill: #ea6a20"/>
    <path d="M367.16,300.65c-3-.77-6.05-1.57-9.06-2.5-6.51-2-12.82-4.26-17.58-6-3.73-1.35-7.4-2.9-10.95-4.41l-.76-.32c-3.88-1.64-7.78-3.37-11.56-5l-1.54-.68c-1.09-.48-2.17-1-3.25-1.47-2-.93-3.9-1.8-5.86-2.58a4.65,4.65,0,0,0-3.21.08c-.8.28-1.62.66-2.49,1.06l-5.16,2.33-6,2.69-2.83,1.28c-2.5,1.14-5.09,2.32-7.74,3.34-6.49,2.51-13.33,5-20.89,7.74-4,1.41-7.95,2.58-11,3.43-1.85.53-3.73,1-5.55,1.43-1.22.3-2.44.6-3.65.92,0,.23,0,.43,0,.59-.09,3.44-.13,6.57-.14,9.58,0,1.09,0,2.18.05,3.27,0,1.33.06,2.66,0,4a80.08,80.08,0,0,0,.75,13.37c.74,4.69,1.49,9,2.3,13.25.53,2.73,1.17,5.62,2.1,9.35.65,2.64,1.42,5.41,2.34,8.48.82,2.74,1.57,5.23,2.52,7.65,1.16,3,2.47,5.94,3.89,8.83l.24.49c12.36-7.52,108.75-72.1,120-78.83C370.49,301.52,368.82,301.08,367.16,300.65Z" transform="translate(-170.15 -271.02)" style="fill: #ed8547"/>
    <path d="M314.3,364.14c-.07,0-.14,0-.2,0-.09.11-.23.21-.33.33.11.24.11.62.59.46.05,0,.13-.17.2-.2a1.22,1.22,0,0,1,0-.33c-.06,0-.21-.24-.26-.26Zm.85,13.05-.13.13a6.18,6.18,0,0,1,.66-.78h.19c0,.24,0,.31.07.52a2.53,2.53,0,0,0-.79.13Zm-1.25.07c0-.1.07-.31.07-.33.25,0,.38,0,.66.07.42,1.05-.28.61-.73.26Zm-1.44-19s.18-.14.2-.2h.13c.15.06.17.4.33.46s.13,0,.19,0-.07.22-.19.27c-.45.15-.51-.23-.66-.53Zm.92-1.05h.2c0,.24,0,.39.06.66,0,0-.23,0-.26,0s0-.12-.13-.13a2.11,2.11,0,0,0-.07-.4c.08,0,.17,0,.2-.13Zm-2.3,3.87s-.18.23-.19.26-.19,0-.27,0-.09-.16-.13-.19h-.13a2.76,2.76,0,0,1-.26-.46.67.67,0,0,1,.07-.33v-.13a.85.85,0,0,1,.85.33c0,.07-.11.17-.07.33s.15,0,.13.19ZM318.36,380c0-.15-.33-.26-.45-.33a7,7,0,0,0,.45-1.38,1,1,0,0,1-.19-.13c-.4-.09-.59.31-.79.46a.86.86,0,0,0-.13.2c0-.14-.07-.45-.13-.66,0-.05-.19-.21-.2-.26-.06-.39.32-.44.4-.72v-.07c0,.05-.09-.19-.07-.26s.54-1,.26-1.18-.62.14-.85.2a.67.67,0,0,0-.2,0c0-.08-.12-.11-.13-.14a2.91,2.91,0,0,1,0-.78c0,.12.07-.07.07-.07-.23-.49-.18-.37-.72-.33-.06.23-.2,1.07-.4,1.18s-.37,0-.52.07a1.89,1.89,0,0,0-.2.2c-.14,0-.19-.08-.26-.07s-.07-.2-.07-.2c0-.23.24-.64.26-.78a1.62,1.62,0,0,0-.13-.66l.07-.19c.12,0,.27-.05.39,0,.31.1.2.68.72.45s.21-.79.07-1.11c-.34,0-.49,0-.79.06a1,1,0,0,0,0-.78c-.06,0-.21-.09-.33-.13s-.43.42-.32.46c.28.08.13.83,0,1.05s-.42.25-.59.32c.05-.84,0-.66.52-1.18-.08-.24-.06-.3-.13-.52,0,0,.18-.1.2-.13s-.06-.2.06-.27-.12-.34-.13-.39.2,0,.26.07.09.18.13.19.32-.05.27-.06.18-.1.19-.13c.07-.2-.07-.53,0-.73s.41-.08.33-.52c0-.15-.29-.3-.39-.39.2-.43.2-.26.06-.66s-.18-.61-.46-.72c-.71-.28-.81.12-.72.72,0,0-.31.15-.32.2V370h-.14c-.05-.18,0-.3-.13-.4l-.06-.06s0-.15,0-.2h.06c.25-.12.36-.37.53-.59-.65-.12-.65-.4-.86-1.11.16-.08.49-.33.66-.33.35,0,.27.18.39.26s.2,0,.33.07a1.64,1.64,0,0,1,.26-.2c0-.19,0-.32-.06-.46l-.26-.13c-.06-.25.18-.24.13-.53s-.26-.22-.33-.32,0-.19-.07-.27-.4-.28-.59-.39c0-.13,0-.27,0-.39s.25-.23.27-.33c0-.37-.35-.56-.59-.66s.18-.14.26-.13l.13.13c.58.16.48-.4.46-.72-.09,0-.1-.12-.13-.13-.32-.11-.74.25-.92.33l-.13-.2s.18-.09.19-.13a1.28,1.28,0,0,0,0-.39c.11,0,0-.11.2-.07s.1.18.13.2c.34.21.47,0,.72-.13-.26-.67-.27-.93-1-.53,0,0,0-.18,0-.19.27-.12.39-.1.53-.33,0,0,.09,0,.13-.07s0-.19,0-.26-.3-.25-.33-.39c-.08-.38.06-.67,0-1.05.07,0,.13-.11.27,0s0,.66,0,.91c.12,0,.23.09.45,0,0,0,.05-.12.07-.13s.19-.17.13-.39c0,0-.14-.15-.13-.2s.29-.16.26-.52-.24-.15-.13-.46l.2-.2s0-.17-.07-.06-.07-.24-.13-.27a1.81,1.81,0,0,0-.52,0v-.13h.06s0-.3.07-.33c.28-.25.58,0,.92-.06,0,0,.13-.17.19-.2a1.13,1.13,0,0,1,0-.26,2.1,2.1,0,0,0-.72-.59c0-.08,0-.33,0-.39s-.21,0-.33-.14-.21-.46-.26-.65c-.07,0-.1-.12-.13-.13-.82-.29-.51.66-.39,1-.12,0-.12,0-.2.07-.26.2-.22.17-.59.06.05-.08-.14-.09-.07-.13.37-.22.22-.64.2-1.18l.2-.06c.33-.59.06-.55-.53-.53.05.66.14.47-.39.59a1,1,0,0,0-1.12-.59,1.4,1.4,0,0,1-.13.33s.19.17.2.2,0,.27,0,.32a1.83,1.83,0,0,0-.39.07,7.61,7.61,0,0,0-.33-1.25,1.83,1.83,0,0,0,.46-.46.92.92,0,0,1-.07-.32s-.34,0-.26,0c-.2.1-.21,0-.33.19a1.87,1.87,0,0,0-.13.4l-.26-.07c0-.05-.08-.16-.13-.2S309,354,309,354c.49-.27.51-.19.4-.72-.09,0-.1-.12-.13-.13s-.31.05-.27.07h-.13c-.09,0-.08.28-.19.32s-.2,0-.27,0c-.08-.3-.19-.75-.45-.85-.08,0-.14,0-.2,0s-.2.1-.26.13v.85c0,.05-.17.08-.2.14s0,.29-.07.32-.16,0-.32.07c.08,0-.16.08-.2.06s-.06-.11-.13-.13c0-.34.13-.72-.2-.85-.13-.05-.15.09-.33.07s-.21-.19-.26-.2c-.52-.11-.74.23-1,.39-.07,0-.13,0-.2,0s-.17-.28-.26-.32a1.53,1.53,0,0,0-1.05.06c-.32.17-.15.87-.33,1.18,0,.05-.45.39-.52.46a3.6,3.6,0,0,0-.4-.39c-.68-.2-1.1,1-1.44-.27a1,1,0,0,0-.4-.06l-.06.13c-.22.14-.4.42-.07.59.06,0-.09.07-.06.13-.15,0-.32.16-.46.13s-.15-.32-.53-.26c-.09,0-.55.45-.59.46a2.67,2.67,0,0,1-.65-.07l-.07.2c-.52.14,0-.27.13-.33a2.15,2.15,0,0,1-.06-.33c-.27,0-.34,0-.59-.06,0,.09-.08.09-.13.13a5.34,5.34,0,0,0,.13.59c-.17.08-.39,0-.46.2a2.11,2.11,0,0,0-.07.59c-.13,0-.13.1-.26.06s-.14-.29-.26-.32a5.5,5.5,0,0,0-1-.07,2.91,2.91,0,0,1-.65,1.51.67.67,0,0,0-.2,0,1.61,1.61,0,0,1-.2-.66c-.11,0-.1,0-.13-.06s-.19,0-.26,0-.06.1-.13.13,0,.31.06.2c0,.06-.06.26-.06.26s-.32-.05-.46,0-.17.28-.26.33a1.6,1.6,0,0,1-1.25-.2,1.26,1.26,0,0,0-.33.52,2.26,2.26,0,0,0,0-.52s-.12-.05-.13-.13-.23,0-.33,0-.17.14-.26.19-.13-.22-.19-.26a3.05,3.05,0,0,0-.92-.13s-.06.12-.07.13c-.38.34-.18.26-.13.66l.07.26s.3,0,.19-.07h.26a2.42,2.42,0,0,0,0,.27c-.15,0-.1.09-.26.06s-.21-.25-.26-.26a3,3,0,0,0-1.05.26c-.07,0,0,.15-.07.2s-.22.07-.32.13-.09.18-.13.2-.17,0-.2,0-.1,0-.13-.07,0-.2,0-.26,0,0-.07-.13a1.7,1.7,0,0,1-.39,0,1.89,1.89,0,0,1-.53.59c-.31.16-1.06.2-1.24.46-.07.09,0,.16-.07.26s-.05.07-.06.13c-.17-.05,0,.2,0,.2.17.05.21-.07.39-.07v.2c-.16.05-.15,0-.33.07.1.06-.18.06-.2.06l-.06-.33s-.31,0-.33,0a1.81,1.81,0,0,1,0-.52c-.7-.16-.48-.11-.79.46l-.19.19c-.06.24.09.44.06.59s-.17.14-.19.2a1.22,1.22,0,0,0-.33,0,4.16,4.16,0,0,1,.06-.46c-.05,0-.11,0-.13-.13l-.46.07-.19.06c-.1.09,0,.37-.13.46s-.39.08-.53.2,0,.17-.06.19-.24,0-.33,0-.13-.13-.13-.13l.13-.19c.23-.07.46,0,.59-.2l.13-.2a.71.71,0,1,0-1.38.13c-.05.08-.05.23-.13.27s-.43,0-.59.06a2.11,2.11,0,0,0-.26,1.05c0,.05.16.13.19.2a1.78,1.78,0,0,1,.4,0,.56.56,0,0,0-.07.13c-.5.09-.52.2-.72.59-.65,0-.76.05-.92.53v.13c-.13.1-.38,0-.52.13-.32.22-.07,1.14-.07,1.7.29.08.69.21.79.46,0,.07,0,.13,0,.2a9.21,9.21,0,0,0-1.05,1c-.06.21.05.35.06.53.09,0,.22.1.4.06s.17-.2.26-.26.29.1.2.13.17.09.19.13,0,.26.07.46c-.09,0-.1.13-.13.2s-.15-.18-.2-.2a3.53,3.53,0,0,0-.46,0,2.6,2.6,0,0,0-.26.86s.18.16.2.19c.1.22,0,.23,0,.46-.09,0-.06.1-.2.07s-.07-.12-.13-.13c.26-.1-.37-.1-.2-.07l-.06.26c.26.16.74.28.92.53s.06.35.19.46.46.07.53.39-.19.48-.13.79.32.26.39.39a3.67,3.67,0,0,1,.13.53,5.39,5.39,0,0,0,.07,1.37h.06c.2.1.34.46.53.53h.13s0,.17.06.19.31,0,.46.07.65.82.4,1c.32.26,1,.42.91,1.05a3.78,3.78,0,0,0-.19.33c.08,0,.05.1.19.06s.09-.19.14-.26.21,0,.26,0c.14.13.67.53.19.66,0-.06-.13-.24-.19-.27s-.2,0-.26,0a1,1,0,0,1-.2.2s0,.24.06.13a2.5,2.5,0,0,1,.07.26c.13-.06.07.46.07.46a2,2,0,0,1,1-.13.81.81,0,0,1,.06-.13c.06,0,.33.05.27.07a4.84,4.84,0,0,0,.33.46c-.31.09-.66.1-.73.39,0,0,0,.17,0,.2s-.23.12-.26.19,0,.24,0,.33.22,0,.33-.06.21-.31.33-.4.44-.28.65-.46a6.36,6.36,0,0,0,.53.72c.08.08.35.16.39.27s-.08.24-.06.39l.13.2a1.72,1.72,0,0,0,.19.72c.08,0,.19,0,.27,0s.38-.34.52-.46c.5.45.91.81,1.71.39-.05.39-.09.78.26.92.1,0,.2,0,.26.07a5.1,5.1,0,0,1,.2.59,1.74,1.74,0,0,1,1.44.26c.1-.06.37-.36.53-.33,0,0-.05.32-.07.4a2.21,2.21,0,0,1,.39.26c.06.1,0,.28,0,.39s.32.32.33.4-.09.24-.13.39a1.85,1.85,0,0,1,.66-.13c.18,0,.32.31.46.39s.21,0,.32.07a2.94,2.94,0,0,1,.59,1.05,3.63,3.63,0,0,1,1-.2c.08,0,.22.13.39.07v-.07c.11-.06.12-.21.2-.26s.2,0,.33-.07c.19.65-.06.42.59.59,0,0,.1-.19.13-.19s.12,0,.2,0,.13.22.19.26a3.93,3.93,0,0,0,.92.13c0,.15-.05.32,0,.46s1.32.5,1.71.59c0,.11,0,.21,0,.33l.59.59c.57.26.59-.19.85-.27.52-.16.72.15.92.27s.2,0,.33.06c0-.09.1-.09.19-.13-.05-.37,0-.57-.06-.79.1,0,.15,0,.26-.06s.22.48.33.52c.37.14.86-.12,1.11-.13.44,0,.5.15.72.33.62-.27.67,0,1.38-.13a3.5,3.5,0,0,0,.39-.2c.23,0,.45.09.6.07s.19-.17.26-.2,0-.21,0-.33-.66-.95.19-.72c0,0,.15.19.2.2s.2-.08.26-.07.06-.28.07-.33,0-.11-.07-.13a1.2,1.2,0,0,0-.32-.06c0-.14-.08-.2-.07-.26,0-.24.41-.36.52-.53s.05-.32.14-.46a2,2,0,0,1,1.18-.46,1.75,1.75,0,0,1,.19.2c.07,0,.2,0,.27,0s.16.29.26.33.14,0,.2,0c.05-.75,0-.57.59-.59a3.87,3.87,0,0,1,0,.59l-.2.13c.12.44,0,.31.26.59-.07,0-.1.12-.13.13s-.22,0-.33,0c.11,0-.25.06-.26.07a.8.8,0,0,0-.07-.2c-.32-.49-.24-.46-1.05-.46a1.51,1.51,0,0,1-.13.46c-.07.09-.3.11-.39.2s-.06.06-.13.19v.2s.22,0,.26,0,.05.23.07.33c-.33,0,0,.51.06.59-.21.17-.39.34-.59.52,0,.12.08.14.07.26.68.4.81.33,1.18-.32,0,.05.22.07.26.13s0,.18.07.26c.26.43.58.22.91.07a2,2,0,0,1,.07-.92c.06,0,.19,0,.26,0s.19.35.33.39c.49.12.56-.25.79-.39s.21,0,.33-.07.22-.25.32-.33.14,0,.2,0,.18.23.26.27.35,0,.59,0a1.4,1.4,0,0,1,.13-.2c.09-.36-.2-.53.07-.72.07,0,.19,0,.26,0s.12.27.2.33c.35.25.64,0,.92-.14,0-.19,0-.4,0-.59s-.54-.17-.59-.32,0-.2,0-.27c.17.05.14-.11.32,0s.09.43.53.4a.85.85,0,0,0,.59-.53s.16-.09.07-.13a.46.46,0,0,1-.2-.46s.18-.11.2-.13c.15-.2.11-.36.19-.66-.06,0-.11,0-.13-.13s-.18,0-.2,0v-.19c.9.41,1,.05,1.84-.2a2.58,2.58,0,0,1,.07-.52c0-.08.23-.17.26-.27s0-.26,0-.39-.11,0-.13-.13a1.22,1.22,0,0,1-.33,0c-.05,0-.1-.25-.13-.26s.15-.11.2-.14c.36.25.22.22.72.2,0-.16.08-.11.06-.26s-.19-.24-.19-.26c-.05-.24.1-.29.13-.4s0-.27,0-.39.24-.27.32-.39,0-.15,0-.2Zm-3.21-4.86c-.06,0-.11,0-.13-.13s-.18,0-.26-.06a1.74,1.74,0,0,1-.2.13,1.7,1.7,0,0,1,0,.39c.65.17.41.33.59-.33Zm-33.58,2.37s-.19-.1-.2-.14c0,.12-.17.28-.13.46s.11.11.13.2.16,0,.26.07-.13-.4-.13-.4.1-.08.07-.19ZM328.34,344c.19,0,.65-.13.65-.13.22,0,.15.09.26.13s.08.14.07.2l-.13.06c-.25.39-.22.21-.59.27a2.63,2.63,0,0,0-.2-.33c-.13,0,0-.14-.06-.2Zm-10.17-2.88c-.19.07-.28.52-.33.72a2.83,2.83,0,0,0-1.18.39c0,.15-.05.32,0,.46s.37.22.46.33.12.44.26.52.29,0,.39,0,.07.12.14.13-.12.39-.07.4a2,2,0,0,0-1,.06c0-.3.1-.75-.2-.85-.07,0-.2,0-.26,0s-.13.1-.13.13c-.11.3.14.43.06.72s-.94.9-1.11,1.12c.07.07,0,.12.06.26s.43.16.59.2c-.75.18-1.12.45-.78,1.18-.23.16-.8.77-.73,1.18,0,.09.24.2.27.26s0,.19,0,.26a6.14,6.14,0,0,0-.92.72c0,.12,0,.27,0,.4l.26.06s0,.18.07.2c-.11.18-.41.41-.46.59s.12.77-.13.85.19.4.19.4v.06a1.71,1.71,0,0,1,.2.27.9.9,0,0,0,.2.19c-.14.21-.48.55-.33,1,0,0,.16.12.19.19a3.23,3.23,0,0,1,.46-.06v.65c0-.14,0,.69.07.79s.31.08.39.13.07.23.13.26a2.94,2.94,0,0,0,.59.2,2.43,2.43,0,0,0,0,.66c.07.19.39.17.59.26a3.31,3.31,0,0,1,.27-.26c.06-.08.08-.19.13-.27a2.1,2.1,0,0,0,.33.73c.23.17.47.1.78.06,0,0,0,.15,0,.2s-.27.27-.32.33.09.24.13.32c.21,0,.4,0,.65,0s.26.19.53.14c.05,0,.2-.25.26-.27s.19,0,.26,0c.38.53.13.56.92.72.22-.31.42-1,1.05-.85,0,0,.19.25.26.26.25.06.38-.14.66-.06.06,0,.14.22.2.26s.21,0,.32.07.08.22.13.26a2.82,2.82,0,0,0,1.19.33c.11,0,.18-.3.32-.33.35-.09.52.15.86.06s.38-.51.46-.72c.89.12.6,0,1.11-.32.1-.08.23-.06.33-.14s.13-.24.2-.26c.26-.09.57.07.85,0,.11,0,.23-.2.33-.26s-.07-.3-.07-.33c-.16-.07-.32-.19-.46-.26a3.42,3.42,0,0,0,.66.06,1.51,1.51,0,0,0,.85-.72c0-.21-.3-.47,0-.59s.42,0,.59,0a4.41,4.41,0,0,0,.59-.26,1.22,1.22,0,0,1,0-.33c-.45-.21-.53-.23-1,.07l-.07.13c-.23,0-.19-.12-.33-.13,0-.1.07-.31.07-.33.52.05.77.05,1.05-.26.49-.56.21-.72-.4-.92,0-.07,0-.12,0-.2s.24-.19.27-.26,0-.19,0-.26h.13a2.25,2.25,0,0,1,0,.26c.08,0,.15,0,.19.13.36-.12.95-.35,1-.72.06-.56-.63-.55-1-.53a1.56,1.56,0,0,0,.14-1,1.59,1.59,0,0,1,.39-.07c0-.07.12-.1.13-.13.12-.35,0-.33.2-.59a1.72,1.72,0,0,1,.33-.26c0,.05-.13.22-.14.26,0,.22.13.27.07.46s-.27.21-.33.26a1.21,1.21,0,0,1,0,.33c.32.06.29.29.66-.07.11-.12.06-.22.13-.39.06,0,.19,0,.26,0s.11.27.13.33c.26-.13.6-.16.72-.4a9,9,0,0,0,.2-1c0-.11-.18-.21-.13-.46,0,0,.3-.52.33-.59-.23-.06-.28-.15-.53-.2,0,0,0-.17,0-.19a1,1,0,0,1,.33-.07,2.25,2.25,0,0,1,0-.52c0-.06.21-.16.26-.2-.15-.33-.19-.52-.32-.85.14-.07.26-.05.39-.14s.13-.24.2-.26.4,0,.59-.06.2-.2.39-.2c.4,0,.49.42.59.72a1.57,1.57,0,0,1,.26-.13,2.84,2.84,0,0,1,.07-.79c0-.07-.06-.17-.07-.13v-.19l.66-.53c0-.13,0-.27,0-.39l-.13-.13-.07-.14a1.47,1.47,0,0,1-.65.07s-.15-.17-.2-.2a1.73,1.73,0,0,1,.39-.52,6.9,6.9,0,0,1-.26-1.64c0-.26.45-.45.53-.66a2.23,2.23,0,0,0-.46-1.83c-.32-.14-.68.07-1-.07-.1-.05-.06-.24-.13-.33s-.41-.12-.59-.26-.43-1-.66-1c-.07,0-.13,0-.19,0-.12.65-.1.63-.72.79a3,3,0,0,0-.14-.33c-.05-.07-.3-.13-.32-.2-.08-.24.14-.37.06-.65,0-.1-.25-.2-.33-.27l.07-.13c.16,0,.37-.05.52,0s.23.35.4.4c.83.21.66-.41.33-.66a7.16,7.16,0,0,0-.66-.39l-.13.06c-.07.12,0,.18-.07.33-.3-.08-.42-.05-.72-.13-.4.86-.25.62-1.24.66l-.33.13s-.12-.06-.07-.07-.24,0-.33,0-.09-.45-.45-.33c0,0-.16.25,0,.2l.06.39c-.3.22-.25.14-.46.46a1,1,0,0,1-.39-.13c-.25-.16-.12-.31-.07-.26,0-.15.19-.14.13-.39,0-.07-.22-.15-.26-.2s0-.16-.06-.26l-.33-.07a4.09,4.09,0,0,0,0,1.05,3.84,3.84,0,0,0-.79.07c-.09,0-.3.31-.39.39a.91.91,0,0,0-.33,0c0-.11,0-.22-.07-.39a1.29,1.29,0,0,0-.78-.14c-.05,0-.18.19-.2.2h-.13c-.48.46.26.57.52.72.08.05.18.21.27.27a2.1,2.1,0,0,0-.27.19,1.1,1.1,0,0,0-1.11-.26c-.11,0-.22.23-.33.26s-.27,0-.39,0c-.07-.26-.22-.77-.53-.79-.1,0-.19.11-.33.14s-.12.1-.13.13a2.57,2.57,0,0,0-.06.59,9.65,9.65,0,0,1-1.38.33c-.1.25-.16.43-.26.65h-.13V339c-.12-.32-.44-.18-.66-.13a2.72,2.72,0,0,1-.39,1c-.56-.18-.44-.17-.86,0a1.78,1.78,0,0,1,0,.4l.2.06v.2a3.47,3.47,0,0,0-.79,0c0,.15-.18.13-.13.39,0,0,.21.26.2.27Zm-2.69,29.19c.7.15.41-.51.33-.73-.06,0-.22,0-.27,0s-.24.22-.32.33a.67.67,0,0,1,0,.2c.07,0,.2.18.26.2Zm-17.32-27.75c0,.07,0,.12,0,.2l-.13.06c-.14.22-.07.35-.13.66,0,0,.24.09.26.13.19.25.28.47.46.72-.13.09-.48.24-.52.39s0,.22,0,.33a4.37,4.37,0,0,1,.65.2s.14.18.2.19.21,0,.33,0c0,.15-.08.3-.13.53-.17,0-.19-.13-.4-.07,0,0-.13.17-.2.2.25.47,0,.34.66.39.06.18.14.38.2.53h.06c0,.28-.09.37-.06.65a8.23,8.23,0,0,0,.26.92c0,.15-.05.32,0,.46s.11.06.13.13c.54-.19.17.12.53-.32.07,0,.11,0,.19,0s.16.18.2.19c.28.07.32-.12.59,0s0,.33-.07.46,0,.19,0,.26a1.79,1.79,0,0,0,1.38.53,2.26,2.26,0,0,1,.13-.33c.05-.07.22-.07.27-.13v.72c0,.08.38.53.45.66a4.69,4.69,0,0,1,.53,0c0-.05.09-.26.13-.27.59-.13.75.51,1.05.6s.29,0,.46-.07.1.29.2.33.19,0,.26,0,.12-.11.13-.13,0-.22,0-.33a2.24,2.24,0,0,1-.46-.07c-.11,0-.16-.36-.26-.39h-.13c0-.07,0-.2,0-.26s.15-.19.19-.27c.09.08.27.09.33.2s0,.19,0,.26.21.18.26.27.27,0,.4,0,.28-.32.59-.33.69.32,1.18.19c.33-.09.25-.52.46-.65s.55,0,.85-.13c.07,0,.19-.16.26-.2a1.13,1.13,0,0,1,0-.26c0-.07.15,0,.2-.13.31.1.7.31,1,.13.08,0,.13-.28.2-.33s.18,0,.26-.07.2-.22.26-.26a4,4,0,0,1,.46-.13,2.14,2.14,0,0,0,.07-.39c0-.1-.25-.19-.27-.26s.09-.17.07-.33a1.11,1.11,0,0,0,.2-.27,1.3,1.3,0,0,0,.78,0c.15-.07.1-.21.2-.32a3.4,3.4,0,0,1,.59-.4,2.68,2.68,0,0,1-.07-.59c0-.14.27-.28.33-.39s.06-.24.13-.39-.19-.11-.19-.14,0-.12,0-.19c.52-.37.62-.57,0-.92.39-.2.72-.41,1.11-.59a1.22,1.22,0,0,1,0-.33c-.08,0-.19-.17-.26-.2-.26-.08-.42,0-.59-.13s0-.21-.07-.32c-.14.05-.1-.19-.13-.27s.37,0,.26.07c.43-.05,1.16-.1.79-.66,0,0-.24-.08-.26-.13s.12-.31.07-.52-.29-.2-.33-.27-.2-.26.06-.39c0-.45-.05-.43.2-.66h.2a1.43,1.43,0,0,1,.06-.45l.4-.2a1.4,1.4,0,0,1-.14-.72c0-.06.19-.22.2-.27s-.09-.09-.06-.19l-.27.06c-.16.55-.1.75-.46.27-.17,0-.15.08-.26.13s0-.42,0-.53c.53-.12.33,0,.59-.39.06,0,.13,0,.2,0s.08.23.13.26c.3.22.71.07,1,0,0-.13,0-.27,0-.39s-.24-.23-.26-.33,0-.36.07-.33v-.13s-.19-.18-.2-.2,0-.16,0-.19c.49-.22.55-.25.79-.73l.13-.13c0-.14-.12-.25-.07-.46s.25-.25.27-.39-.12-.3-.07-.52.3-.36.33-.46,0-.32,0-.46c-.43-.25-.41-.15-.46-.79.11-.07,0-.06.06-.2h.14a4.65,4.65,0,0,0,0,.53s.36,0,.26-.07a1.56,1.56,0,0,1,.19-.39.67.67,0,0,0,0-.2c0-.1-.19-.23-.26-.33s.15-.18.2-.26.18-.27.2-.33c.07-.31-.13-.57-.14-.72s.16-.39.14-.72l-.14-.2c-.14-.72,0-.61-.72-.78,0,.13-.1.37-.13.52s-.08-.06-.13.07c-.23,0-.52-.06-.66-.07a2.52,2.52,0,0,0-.13-1.11c-.19-.05-.51-.23-.78-.13-.05,0-.13.16-.2.19a3.53,3.53,0,0,1,0,.46h-.13c-.07-.14,0-.21-.07-.33s-.42-.3-.46-.52c-.06-.37.18-.38.13-.72a4,4,0,0,0-.65-.86c-.36-.07-.42.17-.59.27s-.46.17-.66.26c.11.43.36,1.23-.46,1.05-.29-.07-.21-.27-.32-.53,0,0-.19-.08-.2-.13-.06-.3.16-.56,0-.85s-.33-.12-.53-.2c0,0-.18.1-.19.13-.07.19,0,.33.06.46s-.1.12-.13.13c-.24.08-.54-.06-.79,0s-.31.3-.45.33c-.31.06-.47-.14-.73.07a6,6,0,0,0-.46,1.11c-.07,0-.12,0-.19,0s-.17-.22-.26-.26c-.61-.24-.58.25-.86.46-.1.07-.27.07-.39.13l-.07-.26c.08-.07.3-.15.33-.26s0-.2,0-.27-.12,0-.13-.13a1.7,1.7,0,0,1-.39,0c-.07.09-.24.22-.27.33s0,.15,0,.2-.3.12-.32.19a1,1,0,0,0,.13.73h-.13a.73.73,0,0,0-.27.52c0,.05.18.16.2.2s0,.23.07.26.15,0,.19.07a4.24,4.24,0,0,0-.19.65.67.67,0,0,0-.2,0c-.17-.36-.22-.23-.13-.79-.07,0-.21-.18-.26-.19s-.47.05-.66,0-.1-.24-.2-.26-.31.05-.26.06a4.72,4.72,0,0,0-.26.46s-.13,0-.13.07,0,.31-.07.39-.33,0-.46.13-.27,1-.13,1.12.32,0,.46-.07,0-.13.07-.26l.19.06a3.2,3.2,0,0,0-.06.46c-.07,0-.11.12-.13.13-.2.07-.52-.05-.73,0l-.06.14c-.11.06-.2,0-.33.06a8.21,8.21,0,0,1,.2-.85c-.13-.05,0,0-.07-.13-.31,0-.59-.13-.79.13a.86.86,0,0,0,0,1,1.36,1.36,0,0,0-.39.59c0,.08,0,.26,0,.33a2.72,2.72,0,0,1-.33.07,3.06,3.06,0,0,1-.06.46,1.58,1.58,0,0,1,.26.06c.07.06.06.28.13.33a2.71,2.71,0,0,0-1.05.2c-.16.12.09.79,0,1s-.25.28-.33.4a10,10,0,0,1-.85,1.24c-.06.07-.23.14-.26.27-.21.8.2.51.39.59a3.08,3.08,0,0,1,.33.26c-.12.26-.42.66-.2,1.05,0,.07.22.11.27.2s-.1,0-.07.19c.06.39.49.4.85.4,0,0-.25.19-.26.19-.63.19-.54-.09-.79.53a1.41,1.41,0,0,0-1.11-.59c-.05.1-.12.13-.2.19.12.3.12.45.26.73a2,2,0,0,0-.39.26c-.07.09,0,.25-.13.33s-.18,0-.26.06-.2.25-.27.33,0,.21,0,.26a1.45,1.45,0,0,0,.79.07Zm-17.38,34.76c-.18-.05-.09.24,0,.27.36.1.09-.24,0-.27Zm53.66-16.85c-.28-.16-.36-.39-.53-.66a6.47,6.47,0,0,1,.66-.26,3.74,3.74,0,0,1,.06-.53s.17-.12.2-.19H335c.07.63.66,2.28-.52,1.64Zm-9.78,3c-.34.19-.21-.31-.33-.59-.18-.46-.42-.19-.78-.26,0,0-.13-.12-.2-.13a2.84,2.84,0,0,0-.46-1.12,10.51,10.51,0,0,1,.92.6l-.07.19a2.13,2.13,0,0,0,1.05.59c0,.13,0,.67-.13.72Zm16.8-2c.06-.07,0-.2.06-.27l-.92-.19s-.22-.52-.26-.59a1.72,1.72,0,0,0,.59-.33c-.1-.09-.09-.25-.2-.33s-.15,0-.26-.07-.05-.24-.06-.32c.2-.1.35-.17.52-.27,0-.09,0-.23,0-.32s-.17-.1-.2-.13a4.91,4.91,0,0,1-.19-.53c0,.11-.07-.2-.07-.2.28-.16.08-.55-.26-.52l-.13.13-.33.13s0,.43,0,.39.17.14.2.2,0,.27.06.4c-.14-.13-.26-.2-.39-.33-.11,0-.22,0-.33,0s-.18.3-.26.33-.22-.05-.33,0l-.07-.14c0,.1-.06-.25-.06-.26l.2-.13c0-.17-.08-.25-.07-.33h-.13c-.09,0-.17.33-.26.4s-.15,0-.2,0-.22.18-.26.19a3.79,3.79,0,0,1-1.25.13,2.13,2.13,0,0,0-.2.59h-.19a5.84,5.84,0,0,1-.07-.72,2.12,2.12,0,0,1,.4-.06,4.53,4.53,0,0,0-.14-1,.94.94,0,0,0,.66,0l.07-.13a1.77,1.77,0,0,1,.46,0c0-.06.09-.13.06-.26s-.43-.53-.59-.72c-.07.09,0,.16-.07.26s-.12,0-.19.07-.14.24-.2.32-.18,0-.2-.06,0-.18-.06-.26-.11-.13-.13-.14c-.25-.08-.38.09-.53.14l-.06-.07a2.46,2.46,0,0,0-.07-.72c-.05,0-.22,0-.26,0s-.23.15-.26.26a1.46,1.46,0,0,0,.06.26c-.07,0-.1.12-.13.13a2.77,2.77,0,0,1-.52.07,10.42,10.42,0,0,0-.2,1.38c-.26-.49-.45-.45-.85-.13-.07-.08-.11-.28-.2-.33a12.16,12.16,0,0,0-1.51-.13c0,.07-.12.1-.13.13a3.54,3.54,0,0,0,0,.92l-.13.06c-.05-.1-.12-.13-.2-.19.17-.57,0-1.32-.65-.86-.09.06-.06.26-.14.33a1.27,1.27,0,0,1-.32.13c0,.19,0,.31.06.46s.7.2.79.46,0,.22,0,.33-.18,0-.2,0a1.36,1.36,0,0,1-.39-.59,5.21,5.21,0,0,1-.85-.07s-.16-.19-.2-.19c-.25,0-.33.15-.59.06,0,0-.06-.12-.13-.13.34-.2.31-.16.26-.66l-.2-.06c-.05.08-.15.06-.19.13s0,.29-.07.33-.39,0-.52.19a5,5,0,0,0-.2.73c-1.27-.38-.8.58-1.57.59l-.2-.07v-.13a1.22,1.22,0,0,1,.33,0s.05-.11.06-.13-.1,0-.13-.13a3.14,3.14,0,0,0-.85-.13c-.12,0-.29.26-.4.32a7.91,7.91,0,0,1-.78.27c-.05,0-.14.18-.2.19-.22,0-.27-.13-.46-.06,0,0-.11.17-.13.19-.24.3-.18.45,0,.79l-.52.13c0-.07,0-.19,0-.26s.17-.11.19-.13,0-.22,0-.33-.17-.13-.19-.2a1.61,1.61,0,0,1-.4.07c0,.26-.1.72-.13,1a2.54,2.54,0,0,0-.39,0c0,.1,0,.24,0,.33s.35.21.46.26,0,.37-.07.27c0,.06,0,.12,0,.19s-.16.14-.2.2H322a2.8,2.8,0,0,0-.26-.52c-.29-.4-.24-.16-.72-.33,0,0-.11-.19-.13-.2s-.22,0-.33,0-.18.15-.2.2,0,.38-.06.52-.45.14-.66.27-.39.72-.46,1c-.52-.24-.2-.24-.72,0,0,.12,0,.15-.07.27a1,1,0,0,0,.6.26s0,.24-.07.26a1.22,1.22,0,0,1-.33,0c0,.08-.18.19-.2.26-.06.27.12.54.14.73s-.08.19-.07.26h-.13c-.14-.05-.26-.42-.39-.46s-.24.07-.4.06c-.17.57-.21.53.2.86-.13.12,0,.85.06,1.11-.09-.09-.22-.16-.32-.26.13,0-.36-.05-.2,0-.08.06-.19,0-.26.07v.13c-.21.59.18.66.39,1.18,0,0,0,.17,0,.19s-.35.18-.39.27,0,.19,0,.26-.2.31-.2.33,0,.26,0,.39a3.5,3.5,0,0,1,.46.39c.07.11.05.25.13.33s.25.09.33.2a5.62,5.62,0,0,1,.46,1.31,1,1,0,0,1,.33.07s-.05.17-.07.19-.28.12-.33.2,0,.72,0,1.05c.12.05,0,0,.07.13a2.88,2.88,0,0,0,.72,0c0,.07,0,.19,0,.26s-.44.36-.2.73c0,.05.25.06.27.13.09.31-.23.48.06.65a1.74,1.74,0,0,0,.46.13c0,.24-.14.55,0,.79,0,0,.18.09.2.13s-.06.38,0,.53.09,0,.13.06.34.13.52.26,0,.13.07.2c.25.42.6.18.92,0,0,.46-.06.63-.13,1.05a2.14,2.14,0,0,0,.32.07c.18-.12.39-.08.46-.33,0-.07,0-.2,0-.26s.24,0,.27-.07,0,.14,0,.2.19.17.19.19-.09.38-.06.4a.32.32,0,0,0-.13.13,1.33,1.33,0,0,1,0,.2,1.34,1.34,0,0,0,.91.13,1.7,1.7,0,0,0,0,.32c0,.08-.18.14-.26.2a1.13,1.13,0,0,1,0,.26c.1,0,.09.11.13.2a1.13,1.13,0,0,0,.59-.2,1.77,1.77,0,0,0,.33-.19c.12-.17,0-.36.2-.46s.23,0,.33,0l.13-.13c.34-.08.21,0,.46.06a1.34,1.34,0,0,0,0,.4l-.53.19c0,.11.07.46.07.46a.8.8,0,0,0,.39.07c.09,0,.24-.21.33-.26.41-.26.64-.11,1.11-.27,0,0,.06-.11.13-.13s.06-.33,0-.46h-.06c-.12,0-.24-.15-.33-.19a1.78,1.78,0,0,0,0-.4c.06-.05.1-.19.2-.19h.06c.13.11.28.41.46.45s.19,0,.27,0c-.08.24-.06.34-.14.59a1.12,1.12,0,0,0,1,.14c.32-.18.09-.43.06-.59s.08-.25.07-.33a4.29,4.29,0,0,0,1.25-.26s0-.13.06-.14h.13c.1-.16,0-.37.07-.59s.26-.21.33-.32,0-.21.06-.33a2.69,2.69,0,0,0,1.18-.13c.14-.08.21-.31.33-.4s.13,0,.2,0c.42-.16.13-.59,0-.78.22-.07.65-.13.72-.33s-.05-.3,0-.4h.06a2.85,2.85,0,0,0,.66-.59c.07,0,.19,0,.26,0s.2.4.59.27c0,0,.13-.17.2-.2s0-.24-.07-.33-.36-.18-.39-.26,0-.13,0-.2c.62-.16.73-.13.66-.85.22-.14.43-.18.65-.33s.06-.14.13-.2c0-.3-.12-.71.13-.85.48-.25.63.15.86.2s.31-.1.46-.13c0-.16.08-.11.06-.26s-.14-.21-.13-.33.19-.19.2-.2,0-.12,0-.2l-.4-.19a1,1,0,0,0,0-1c.22.12.43.23.66.33h.39a5.21,5.21,0,0,1,.33-.79c.17-.12.41,0,.59-.13s.06-.37,0-.33,0-.22,0-.32.12-.07.13-.13a1.47,1.47,0,0,0,.92-.14c.05-.47.06-.66-.26-.91,0,0-.18-.1-.2-.14s0-.31,0-.45.11,0,.13-.07c.11.05.22,0,.33,0s.06.28.13.33a.66.66,0,0,0,1-.26c.07-.26,0-.25-.07-.46h-.13l.07-.53a1.71,1.71,0,0,1-.4,0c0-.11,0-.22,0-.33s-.17-.09-.19-.13,0-.2-.07-.33.12-.17.2-.19.15,0,.19,0,.19-.41.33-.46a1.94,1.94,0,0,1,.59,0,8.72,8.72,0,0,1,.33-.92c-.05,0-.07-.23-.13-.26s-.3-.07-.39-.13c-.39-.25.43-.44.59-.59Zm-63.57-7.88c.42.08.59-.35.72-.59a1,1,0,0,0,.27.14c-.23.45-.14.38,0,.78,0,0,0,.18,0,.2s-.08.17-.07.2c.08.39.62.35,1,.32,0,0,0,.16,0,.2s-.5.37-.65.46c0,.11,0,.22,0,.33a1.76,1.76,0,0,0,.46.39,1.69,1.69,0,0,0,.92-.2c.06,0,.17-.24.26-.26s.28.08.46.13a1.33,1.33,0,0,0,0,.2c-.82.09-1,.29-.59.92.35-.09.43,0,.78-.13,0,.21.09.64.27.72s.32,0,.46,0c.69.09.71.39,1.18-.26a1.7,1.7,0,0,0,.78,0l.13-.13c.22,0,.45.11.59.13s.26-.07.4-.07c0-.16.07-.31.13-.52a1.81,1.81,0,0,0-.33-.2v-.13c.22-.1.47-.27.66-.33a1.1,1.1,0,0,1,.78,0l.14.13c.33.05.5-.16.72-.2s.39.06.52,0,.19-.49.33-.65.48-.25.66-.4c-.07-.15.19,0,.19,0,.1.6,0,.5.59.6.1-.19.26-.59.53-.6.11,0,0,.1.2.07s0,.23,0,.33.16.13.19.2.19,0,.26,0,.32-.54.4-.73c.73,0,.58,0,.85-.46a2.89,2.89,0,0,0,.72,0c0-.07.12-.1.13-.13s-.05-.31,0-.46.32-.22.4-.32.09-.31.19-.4.5-.18.59-.46,0-.3,0-.46.19-.31.2-.39c0-.5-.24-.54-.52-.72l-.27.33c.17,0-.19.13-.19.13.06-.36-.05-.35.32-.59.16-.1.25-.09.4-.2s.08-.17.13-.2c.22-.1.5,0,.72-.13s.05-.26.13-.32c-.1-.19,0-.22-.19-.33a1.62,1.62,0,0,0-.33-.13c.07-.05.11-.24.19-.27s.38,0,.53-.06,0-.21.13-.33.28-.12.33-.2a2.88,2.88,0,0,0,.26-1c0-.11-.23-.19-.26-.26s0-.26-.07-.46c.09,0,.1-.13.13-.13s.19.11.27.13c.39.09.48-.15.65-.26a6.92,6.92,0,0,1-.06-.86c-.31-.16-.44-.06-.46-.52s.22-.42.26-.59a.92.92,0,0,0-.07-.4c0-.57.16-.63,0-1.18a1.22,1.22,0,0,1,.33,0c.2-.42.17-.24.07-.72-.09,0-.21,0-.26-.06a4.91,4.91,0,0,1-.4-.53c.28-.22.49-.45.79-.65,0-.12,0-.22,0-.33s-.18-.2-.2-.27a6.16,6.16,0,0,1-.06-.72l.52.07a2,2,0,0,0,.07-.39s-.32-.84-.33-.86a2.26,2.26,0,0,0-.33-.13c.1-.3.32-.85-.06-1-.12,0-.22,0-.33,0-.05.12-.08.23-.13.33-.33.57-.06,0-.33.13a1.78,1.78,0,0,0,0-.4l.13-.06c0-.1.07-.08.13-.13s-.11-.3-.13-.4a1.8,1.8,0,0,1-.66.2S295,337,295,337s-.19,0-.27,0-.2.31-.26.33-.19,0-.26,0c.23,0-.13-.85-.13-.85a2.17,2.17,0,0,0,.59-.33,1.7,1.7,0,0,1,0-.39,1.8,1.8,0,0,0-.72-.07.54.54,0,0,0-.2-.26,3.15,3.15,0,0,1-.52.33c-.08.66,0,.65.52.65a3.25,3.25,0,0,0-.2.72,2.17,2.17,0,0,0-.65-.59h-.07c-.11-.22,0-.54-.06-.78.14,0,.12,0,.19-.07s.32-.16.4-.26.05-.28,0-.2-.1-.24-.13-.26c-.32-.16-.79.06-1.05,0s-.29-.47-.46-.53h-.13c0,.07-.16,0-.2.07s0,.33-.07.46a.68.68,0,0,1-.65.2s-.13-.35-.33-.4a1.51,1.51,0,0,0-.53.07l-.06.52-.33.4.2.06a4.38,4.38,0,0,1,.26.53c-.07,0-.19,0-.26,0-.23-.08-.47-.75-.72-.86a6.82,6.82,0,0,0-1.25-.19,1,1,0,0,1-.26.19v.2c.08,0,.1.16,0,.13s-.06-.11-.07-.13h-.59a2.1,2.1,0,0,1-.46.92c-.08-.06-.18,0-.26-.07a1.05,1.05,0,0,1-.13-.26c.44-.12-.74,0-.26.07-.11,0-.19,0-.27.06l-.39.46c-.1.18-.05.53-.26.66a1.94,1.94,0,0,1-.46.06c-.32.85-.28.29-.79.53-.08,0-.12.26-.2.33s-.19,0-.26.06l-.06.13a1.44,1.44,0,0,1-.86.13,1.69,1.69,0,0,1-.13.4c-.11.17-.35.14-.52.26s-.76,1-.92,1-.28-.07-.39-.07a6.41,6.41,0,0,0-.86.2,5.31,5.31,0,0,0,.07.85c-.15,0,0,.08-.13.07l-.13-.13a.55.55,0,0,0-.53.26c-.11.23,0,.43,0,.66a1.34,1.34,0,0,1,.4,0c-.06.75,0,.76-.66.72a1.21,1.21,0,0,1-.2.19c.08.26.06.38.13.66l-.39.07s0-.34-.66.13c.1.72-.24,1-.13,1.77-.19.11-.41.28-.59.39,0,.12,0,.21,0,.33s.24.38.27.59a1.37,1.37,0,0,1-.07.59l-.13.07a4.18,4.18,0,0,0,.13,1.24c.08,0,.17,0,.2.07s0,.19,0,.26-.23.13-.27.2c-.21.34,0,.65-.06,1.05l-.13.06v.13a.94.94,0,0,0,0,.53s.16.09.19.13v.13c.68.05.69.05,1.05-.39a1.85,1.85,0,0,0,.2.06c0,.09-.12.22-.13.27a1.52,1.52,0,0,0,.06.39s.19.09.2.13a2.26,2.26,0,0,1,0,.52c-.6-.27-1-.22-.72.53,0,.09,0,.15.07.2s.3,0,.45.06.16.26.2.26Z" transform="translate(-170.15 -271.02)" style="fill: #fff"/>
    <path d="M321.7,383h.35c.36,0,.47-.1.47-.31s-.09-.28-.42-.28h-.4V383Zm0,1.08h-.29v-1.91h.73c.45,0,.68.17.68.54a.51.51,0,0,1-.5.53l.54.84h-.32l-.51-.83h-.33v.83Zm.35-2.35a1.39,1.39,0,1,0,1.36,1.39,1.36,1.36,0,0,0-1.36-1.39Zm0-.26a1.66,1.66,0,1,1-1.68,1.65,1.65,1.65,0,0,1,1.68-1.65Z" transform="translate(-170.15 -271.02)" style="fill: #fff"/>
  </g>
</svg>
