<?xml version="1.0" encoding="UTF-8" standalone="no"?>
<svg
   id="Layer_1"
   data-name="Layer 1"
   viewBox="0 0 304.00001 304"
   version="1.1"
   xml:space="preserve"
   width="304"
   height="304"
   xmlns="http://www.w3.org/2000/svg"
   xmlns:svg="http://www.w3.org/2000/svg"
   xmlns:rdf="http://www.w3.org/1999/02/22-rdf-syntax-ns#"
   xmlns:cc="http://creativecommons.org/ns#"
   xmlns:dc="http://purl.org/dc/elements/1.1/"><defs
     id="defs43" /><title
     id="title1">Orange CU Cyber Logo (1)</title><g
     id="g43"><g
       id="g45"
       transform="matrix(1.0534451,0,0,1.0534451,-6.7987571,59.545307)"><polygon
         points="175.58,43.34 175.58,39.83 230.75,39.83 246.29,23.89 270.84,23.89 270.84,27.4 247.77,27.4 232.24,43.34 "
         style="fill:#33125d;fill-opacity:1"
         id="polygon7"
         transform="translate(-0.08999634)" /><polygon
         points="175.06,58.23 175.06,54.71 230.24,54.71 245.77,38.77 270.32,38.77 270.32,42.28 247.25,42.28 231.72,58.23 "
         style="fill:#33125d;fill-opacity:1"
         id="polygon8"
         transform="translate(-0.08999634)" /><polygon
         points="175.58,69.92 175.58,66.4 235.93,66.4 250.69,51.26 253.2,53.71 237.41,69.92 "
         style="fill:#33125d;fill-opacity:1"
         id="polygon9"
         transform="translate(-0.08999634)" /><polygon
         points="238.87,151.87 221.26,135.92 158.59,135.92 158.59,132.19 222.7,132.19 240.31,148.13 266.59,148.13 266.59,151.87 "
         style="fill:#33125d;fill-opacity:1"
         id="polygon10"
         transform="translate(-0.08999634)" /><polygon
         points="240.06,136.93 223.58,120.98 164.97,120.98 164.97,117.37 225.04,117.37 241.53,133.31 266.07,133.31 266.07,136.93 "
         style="fill:#33125d;fill-opacity:1"
         id="polygon11"
         transform="translate(-0.08999634)" /><polygon
         points="231.68,109.24 171.33,109.24 171.33,105.73 233.16,105.73 248.95,121.94 246.44,124.39 "
         style="fill:#33125d;fill-opacity:1"
         id="polygon12"
         transform="translate(-0.08999634)" /><g
         id="g13"
         style="fill:#33125d;fill-opacity:1"
         transform="translate(-0.08999634)"><path
           d="M 419.31,351.4"
           transform="translate(-153.91,-271.02)"
           style="fill:#33125d;fill-opacity:1"
           id="path12" /><path
           d="M 335.88,351.4"
           transform="translate(-153.91,-271.02)"
           style="fill:#33125d;fill-opacity:1"
           id="path13" /><rect
           x="181.97"
           y="78.599998"
           width="83.43"
           height="3.5599999"
           style="fill:#33125d;fill-opacity:1"
           id="rect13" /></g><g
         id="g15"
         style="fill:#33125d;fill-opacity:1"
         transform="translate(-0.08999634)"><path
           d="M 430.85,365.75"
           transform="translate(-153.91,-271.02)"
           style="fill:#33125d;fill-opacity:1"
           id="path14" /><path
           d="M 333.23,365.75"
           transform="translate(-153.91,-271.02)"
           style="fill:#33125d;fill-opacity:1"
           id="path15" /><rect
           x="179.32001"
           y="92.949997"
           width="97.629997"
           height="3.5599999"
           style="fill:#33125d;fill-opacity:1"
           id="rect15" /></g><path
         d="m 268.63,83.98 a 4.83,4.83 0 1 1 4.75,-4.83 4.8,4.8 0 0 1 -4.75,4.83 z m 0,-7.63 a 2.79,2.79 0 1 0 2.62,2.78 2.7,2.7 0 0 0 -2.63,-2.78 z"
         style="fill:#33125d;fill-opacity:1;stroke:#33125d;stroke-width:1.21953px;stroke-miterlimit:10;stroke-opacity:1"
         id="path16" /><path
         d="m 254.64,55.48 a 4.84,4.84 0 1 1 4.74,-4.83 4.8,4.8 0 0 1 -4.74,4.83 z m 0,-7.64 a 2.8,2.8 0 1 0 2.61,2.79 2.71,2.71 0 0 0 -2.62,-2.79 z"
         style="fill:#33125d;fill-opacity:1;stroke:#33125d;stroke-width:1.21953px;stroke-miterlimit:10;stroke-opacity:1"
         id="path17" /><path
         d="m 274.21,45.33 a 4.83,4.83 0 1 1 4.74,-4.83 4.8,4.8 0 0 1 -4.74,4.83 z m 0,-7.63 a 2.79,2.79 0 1 0 2.62,2.78 2.7,2.7 0 0 0 -2.64,-2.78 z"
         style="fill:#33125d;fill-opacity:1;stroke:#33125d;stroke-width:1.21953px;stroke-miterlimit:10;stroke-opacity:1"
         id="path18" /><path
         d="m 274,30.35 a 4.83,4.83 0 1 1 4.75,-4.83 4.79,4.79 0 0 1 -4.75,4.83 z m 0,-7.63 a 2.79,2.79 0 1 0 2.62,2.79 2.71,2.71 0 0 0 -2.62,-2.79 z"
         style="fill:#33125d;fill-opacity:1;stroke:#33125d;stroke-width:1.21953px;stroke-miterlimit:10;stroke-opacity:1"
         id="path19" /><path
         d="m 29.72,30.85 a 4.83,4.83 0 1 1 4.74,-4.83 4.79,4.79 0 0 1 -4.74,4.83 z m 0,-7.63 a 2.79,2.79 0 1 0 2.61,2.79 2.71,2.71 0 0 0 -2.62,-2.79 z"
         style="fill:#33125d;fill-opacity:1;stroke:#33125d;stroke-width:1.21953px;stroke-miterlimit:10;stroke-opacity:1"
         id="path20" /><path
         d="m 30.2,45.11 a 4.84,4.84 0 1 1 4.75,-4.84 4.8,4.8 0 0 1 -4.75,4.84 z m 0,-7.64 a 2.79,2.79 0 1 0 2.62,2.79 2.71,2.71 0 0 0 -2.63,-2.79 z"
         style="fill:#33125d;fill-opacity:1;stroke:#33125d;stroke-width:1.21953px;stroke-miterlimit:10;stroke-opacity:1"
         id="path21" /><path
         d="M 50,55.25 A 4.83,4.83 0 1 1 54.74,50.42 4.8,4.8 0 0 1 50,55.25 Z m 0,-7.63 A 2.79,2.79 0 1 0 52.61,50.4 2.7,2.7 0 0 0 50,47.62 Z"
         style="fill:#33125d;fill-opacity:1;stroke:#33125d;stroke-width:1.21953px;stroke-miterlimit:10;stroke-opacity:1"
         id="path22" /><path
         d="m 21.5,99.7 a 4.83,4.83 0 1 1 4.75,-4.83 4.8,4.8 0 0 1 -4.75,4.83 z m 0,-7.64 a 2.8,2.8 0 1 0 2.62,2.79 2.71,2.71 0 0 0 -2.63,-2.79 z"
         style="fill:#33125d;fill-opacity:1;stroke:#33125d;stroke-width:1.21953px;stroke-miterlimit:10;stroke-opacity:1"
         id="path23" /><path
         d="m 34.55,139.8 a 4.84,4.84 0 1 1 4.74,-4.84 4.8,4.8 0 0 1 -4.74,4.84 z m 0,-7.64 a 2.79,2.79 0 1 0 2.61,2.79 2.71,2.71 0 0 0 -2.62,-2.79 z"
         style="fill:#33125d;fill-opacity:1;stroke:#33125d;stroke-width:1.21953px;stroke-miterlimit:10;stroke-opacity:1"
         id="path24" /><path
         d="m 34.19,155.19 a 4.83,4.83 0 1 1 4.74,-4.83 4.79,4.79 0 0 1 -4.74,4.83 z m 0,-7.63 a 2.79,2.79 0 1 0 2.61,2.79 2.71,2.71 0 0 0 -2.62,-2.79 z"
         style="fill:#33125d;fill-opacity:1;stroke:#33125d;stroke-width:1.21953px;stroke-miterlimit:10;stroke-opacity:1"
         id="path25" /><path
         d="m 54.11,130.56 a 4.84,4.84 0 1 1 4.75,-4.84 4.8,4.8 0 0 1 -4.75,4.84 z m 0,-7.64 a 2.79,2.79 0 1 0 2.62,2.79 2.71,2.71 0 0 0 -2.63,-2.79 z"
         style="fill:#33125d;fill-opacity:1;stroke:#33125d;stroke-width:1.21953px;stroke-miterlimit:10;stroke-opacity:1"
         id="path26" /><path
         d="M 35,85.2 A 4.83,4.83 0 1 1 39.75,80.37 4.79,4.79 0 0 1 35,85.2 Z m 0,-7.63 A 2.79,2.79 0 1 0 37.62,80.36 2.71,2.71 0 0 0 35,77.57 Z"
         style="fill:#33125d;fill-opacity:1;stroke:#33125d;stroke-width:1.21953px;stroke-miterlimit:10;stroke-opacity:1"
         id="path27" /><path
         d="m 280.16,99.68 a 4.83,4.83 0 1 1 4.74,-4.83 4.8,4.8 0 0 1 -4.74,4.83 z m 0,-7.63 a 2.79,2.79 0 1 0 2.61,2.78 2.7,2.7 0 0 0 -2.62,-2.78 z"
         style="fill:#33125d;fill-opacity:1;stroke:#33125d;stroke-width:1.21953px;stroke-miterlimit:10;stroke-opacity:1"
         id="path28" /><path
         d="m 250.2,130.6 a 4.83,4.83 0 1 1 4.75,-4.83 4.8,4.8 0 0 1 -4.75,4.83 z m 0,-7.63 a 2.79,2.79 0 1 0 2.62,2.78 2.7,2.7 0 0 0 -2.63,-2.77 z"
         style="fill:#33125d;fill-opacity:1;stroke:#33125d;stroke-width:1.21953px;stroke-miterlimit:10;stroke-opacity:1"
         id="path29" /><path
         d="m 270,154.76 a 4.84,4.84 0 1 1 4.75,-4.84 4.8,4.8 0 0 1 -4.75,4.84 z m 0,-7.64 a 2.79,2.79 0 1 0 2.62,2.79 2.71,2.71 0 0 0 -2.62,-2.79 z"
         style="fill:#33125d;fill-opacity:1;stroke:#33125d;stroke-width:1.21953px;stroke-miterlimit:10;stroke-opacity:1"
         id="path30" /><path
         d="m 269.53,140.26 a 4.83,4.83 0 1 1 4.74,-4.83 4.79,4.79 0 0 1 -4.74,4.83 z m 0,-7.63 a 2.79,2.79 0 1 0 2.61,2.78 2.7,2.7 0 0 0 -2.62,-2.78 z"
         style="fill:#33125d;fill-opacity:1;stroke:#33125d;stroke-width:1.21953px;stroke-miterlimit:10;stroke-opacity:1"
         id="path31" /><polygon
         points="71.94,43.34 56.41,27.4 33.34,27.4 33.34,23.89 57.89,23.89 73.42,39.83 128.6,39.83 128.6,43.34 "
         style="fill:#33125d;fill-opacity:1"
         id="polygon31"
         transform="translate(-0.08999634)" /><polygon
         points="72.46,58.23 56.93,42.28 33.86,42.28 33.86,38.77 58.41,38.77 73.94,54.71 129.11,54.71 129.11,58.23 "
         style="fill:#33125d;fill-opacity:1"
         id="polygon32"
         transform="translate(-0.08999634)" /><polygon
         points="66.77,69.92 50.98,53.71 53.49,51.26 68.25,66.4 128.6,66.4 128.6,69.92 "
         style="fill:#33125d;fill-opacity:1"
         id="polygon33"
         transform="translate(-0.08999634)" /><polygon
         points="37.59,151.87 37.59,148.13 63.87,148.13 81.48,132.19 145.59,132.19 145.59,135.92 82.92,135.92 65.31,151.87 "
         style="fill:#33125d;fill-opacity:1"
         id="polygon34"
         transform="translate(-0.08999634)" /><polygon
         points="38.11,136.93 38.11,133.31 62.65,133.31 79.14,117.37 139.21,117.37 139.21,120.98 80.6,120.98 64.11,136.93 "
         style="fill:#33125d;fill-opacity:1"
         id="polygon35"
         transform="translate(-0.08999634)" /><polygon
         points="55.23,121.94 71.02,105.73 132.85,105.73 132.85,109.24 72.5,109.24 57.74,124.39 "
         style="fill:#33125d;fill-opacity:1"
         id="polygon36"
         transform="translate(-0.08999634)" /><g
         id="g37"
         style="fill:#33125d;fill-opacity:1"
         transform="translate(-0.08999634)"><path
           d="M 192.69,351.4"
           transform="translate(-153.91,-271.02)"
           style="fill:#33125d;fill-opacity:1"
           id="path36" /><path
           d="M 276.12,351.4"
           transform="translate(-153.91,-271.02)"
           style="fill:#33125d;fill-opacity:1"
           id="path37" /><rect
           x="38.779999"
           y="78.599998"
           width="83.43"
           height="3.5599999"
           style="fill:#33125d;fill-opacity:1"
           id="rect37" /></g><g
         id="g39"
         style="fill:#33125d;fill-opacity:1"
         transform="translate(-0.08999634)"><path
           d="M 179.26,365.75"
           transform="translate(-153.91,-271.02)"
           style="fill:#33125d;fill-opacity:1"
           id="path38" /><path
           d="M 278.77,365.75"
           transform="translate(-153.91,-271.02)"
           style="fill:#33125d;fill-opacity:1"
           id="path39" /><rect
           x="25.35"
           y="92.949997"
           width="99.510002"
           height="3.5599999"
           style="fill:#33125d;fill-opacity:1"
           id="rect39" /></g><path
         d="m 151.09,175.51 a 7,7 0 0 1 -2.81,-0.62 45.29,45.29 0 0 1 -10.94,-7.33 c -3.47,-3 -8,-6.89 -12.36,-11.05 -3.06,-2.94 -6.14,-6.21 -9.42,-10 -3.65,-4.23 -6.79,-8.14 -9.6,-11.94 -2.81,-3.8 -5.57,-7.9 -8.4,-12.48 -2,-3.24 -3.68,-6.57 -5.36,-10 -1.49,-3.05 -2.87,-6.18 -4.1,-9.31 -1,-2.66 -1.87,-5.4 -2.66,-8 -1,-3.27 -1.77,-6.14 -2.45,-8.88 -1,-3.85 -1.63,-6.84 -2.17,-9.69 -0.83,-4.3 -1.59,-8.7 -2.34,-13.45 A 88.31,88.31 0 0 1 77.65,48.32 c 0,-1.25 0,-2.5 0,-3.75 0,-1.25 -0.06,-2.3 -0.05,-3.45 0,-3.05 0.06,-6.24 0.15,-9.73 0,-0.73 0,-2.77 0,-2.77 l -0.05,-2.45 2.35,-0.68 1.73,-0.5 c 1.5,-0.41 3,-0.77 4.52,-1.14 1.76,-0.43 3.59,-0.88 5.33,-1.37 2.92,-0.83 6.77,-2 10.56,-3.31 7.51,-2.68 14.3,-5.19 20.74,-7.68 2.47,-1 5,-2.09 7.39,-3.19 1,-0.44 1.92,-0.88 2.89,-1.3 l 6,-2.69 5.12,-2.3 a 31.76,31.76 0 0 1 3,-1.29 10.83,10.83 0 0 1 7.67,0 c 2.12,0.84 4.19,1.79 6.19,2.71 l 3.15,1.44 1.55,0.68 c 3.75,1.66 7.63,3.38 11.46,5 l 0.76,0.32 c 3.48,1.47 7.07,3 10.63,4.29 4.7,1.7 10.92,3.91 17.3,5.89 2.87,0.89 5.87,1.66 8.77,2.42 1.95,0.5 3.9,1 5.83,1.55 0.46,0.13 1.68,0.4 1.69,0.4 l 2.49,0.57 v 2.55 c 0,1.14 0,4.38 0.09,5.7 0.13,2 0.19,4 0.24,5.95 0,0.82 0,1.63 0.08,2.42 v 0.22 c 0,0.94 -0.05,1.88 -0.07,2.81 0,2.07 -0.09,4.22 -0.25,6.35 -0.23,3.15 -0.59,6.32 -1.07,9.43 l -0.24,1.56 c -0.81,5.22 -1.64,10.61 -2.71,15.9 a 157.77,157.77 0 0 1 -5.74,21.31 c -1.05,3 -2.36,5.95 -3.63,8.78 -0.39,0.88 -0.79,1.76 -1.17,2.65 a 101.66,101.66 0 0 1 -8.75,15.54 c -2.36,3.56 -5.05,7.24 -8.72,11.93 -2.6,3.34 -5.48,6.75 -8.56,10.15 a 153.38,153.38 0 0 1 -15.57,15.15 l -1.35,1.14 c -1.89,1.58 -3.84,3.23 -5.89,4.75 a 34.59,34.59 0 0 1 -7.64,4.69 7.36,7.36 0 0 1 -2.78,0.54 z"
         style="fill:#800000;fill-opacity:1"
         id="path40" /><path
         id="path41"
         style="fill:#570000;fill-opacity:1"
         d="M 150.98812,6.42383 A 4.65,4.65 0 0 0 149.39047,6.75 c -0.8,0.28 -1.62024,0.66055 -2.49024,1.06055 l -5.16015,2.33007 -6,2.68946 -2.83008,1.27929 c -2.5,1.14 -5.09024,2.31985 -7.74023,3.33985 -6.49,2.51 -13.33064,5.00024 -20.89063,7.74023 -4,1.41 -7.95,2.57969 -11,3.42969 -1.85,0.53 -3.72883,1.00164 -5.54883,1.43164 -1.22,0.3 -2.44039,0.59992 -3.65039,0.91992 v 0.58985 c -0.09,3.43999 -0.13062,6.57008 -0.14062,9.58007 0,1.09 7.8e-4,2.17954 0.0508,3.26954 0,1.32999 0.06,2.66 0,4 a 80.08,80.08 0 0 0 0.75,13.36914 c 0.74,4.68999 1.49078,9 2.30078,13.25 0.53,2.72999 1.16961,5.62156 2.09961,9.35156 0.65,2.64 1.41984,5.40852 2.33984,8.47851 0.82,2.74 1.56953,5.2304 2.51953,7.6504 1.16,2.99999 2.47063,5.94008 3.89063,8.83007 l 0.24023,0.49024 c 3.70819,-2.25612 15.7234,-10.15321 29.99024,-19.57813 l 14.05078,-14.14453 -15.39258,-15.28906 -3.40625,3.39453 -11.60352,3.78125 -0.16406,-0.15039 13.14649,-13.48242 c 0,0 -13.65257,-13.71424 -13.89649,-13.88281 -0.28198,-0.19486 -1.01991,-0.49401 -1.64062,-0.66602 -1.45964,-0.40449 -1.92126,-0.65258 -2.8711,-1.54102 -1.17669,-1.10067 -1.42684,-1.70742 -1.48242,-3.58789 -0.0258,-0.87033 0.0135,-1.82134 0.0879,-2.11523 0.31159,-1.22579 2.10512,-3.01075 3.3711,-3.35547 0.94479,-0.25727 3.70846,-0.10452 4.3789,0.24219 0.28439,0.14706 0.96525,0.71523 1.51172,1.26172 1.05308,1.05307 1.40864,1.7886 1.60938,3.33398 0.0984,0.75705 0.19281,0.88322 2.17773,2.90625 4.00044,4.01518 12.14453,11.90039 12.14453,11.90039 0,0 13.31074,-13.17513 13.87891,-12.96094 -1.07412,3.86574 -3.78906,11.44727 -3.78906,11.44727 l -3.53907,3.56055 15.34571,15.26757 15.21679,-15.31835 -3.39453,-3.40625 -3.78125,-11.60352 0.15235,-0.16406 13.48046,13.14648 c 0,0 13.71424,-13.65256 13.88282,-13.89648 0.19485,-0.28198 0.494,-1.01992 0.66601,-1.64063 0.40449,-1.45963 0.65258,-1.92125 1.54102,-2.87109 1.10068,-1.17669 1.70743,-1.42684 3.58789,-1.48242 0.87034,-0.0258 1.82135,0.0135 2.11523,0.0879 1.2258,0.31159 3.01075,2.10511 3.35547,3.37109 0.25728,0.94479 0.10452,3.70847 -0.24219,4.37891 -0.14707,0.28439 -0.71523,0.96525 -1.26171,1.51172 -1.05308,1.05307 -1.78861,1.40863 -3.33399,1.60937 -0.75705,0.0984 -0.88321,0.19282 -2.90625,2.17774 -4.01516,4.00043 -11.90039,12.14453 -11.90039,12.14453 0,0 1.0819,1.11182 1.32227,1.35547 17.8608,-11.81331 33.60201,-22.18549 37.59179,-24.57227 -1.64,-0.5 -3.3107,-0.93914 -4.9707,-1.36914 -3,-0.77 -6.05055,-1.57 -9.06055,-2.5 -6.50999,-2 -12.82008,-4.26 -17.58008,-6 -3.72999,-1.35 -7.39922,-2.90016 -10.94921,-4.41016 l -0.75977,-0.32031 c -3.88,-1.64 -7.78055,-3.37 -11.56055,-5 l -1.53906,-0.67969 c -1.09,-0.48 -2.17,-1.0007 -3.25,-1.4707 -2,-0.93 -3.90133,-1.80008 -5.86133,-2.58008 a 4.65,4.65 0 0 0 -1.61133,-0.24609 z m 29.55079,49.14844 c -17.39184,11.50312 -35.99596,23.83102 -52.41797,34.67968 l -21.3711,21.51367 -1.74023,11.45508 11.47266,-1.45312 35.61523,-35.79883 35.5957,35.35547 11.45313,1.74023 -1.45313,-11.47265 -35.72656,-35.54297 15.20313,-15.28125 3.56054,3.53906 c 0,0 7.58153,2.71495 11.44727,3.78906 0.19261,-0.51091 -9.4936,-10.34912 -11.63867,-12.52343 z" /></g></g><metadata
     id="metadata45"><rdf:RDF><cc:Work
         rdf:about=""><dc:title>Orange CU Cyber Logo (1)</dc:title></cc:Work></rdf:RDF></metadata></svg>
