<?xml version="1.0" encoding="UTF-8" standalone="no"?>
<svg
   id="Layer_1"
   data-name="Layer 1"
   viewBox="0 0 304.18 304.17999"
   version="1.1"
   sodipodi:docname="logo.svg"
   xml:space="preserve"
   inkscape:export-filename="shield.png"
   inkscape:export-xdpi="323.17999"
   inkscape:export-ydpi="323.17999"
   inkscape:version="1.3.2 (091e20ef0f, 2023-11-25, custom)"
   width="304.17999"
   height="304.17999"
   xmlns:inkscape="http://www.inkscape.org/namespaces/inkscape"
   xmlns:sodipodi="http://sodipodi.sourceforge.net/DTD/sodipodi-0.dtd"
   xmlns="http://www.w3.org/2000/svg"
   xmlns:svg="http://www.w3.org/2000/svg"
   xmlns:rdf="http://www.w3.org/1999/02/22-rdf-syntax-ns#"
   xmlns:cc="http://creativecommons.org/ns#"
   xmlns:dc="http://purl.org/dc/elements/1.1/"><defs
     id="defs43" /><sodipodi:namedview
     id="namedview43"
     pagecolor="#ffffff"
     bordercolor="#999999"
     borderopacity="1"
     inkscape:showpageshadow="2"
     inkscape:pageopacity="0"
     inkscape:pagecheckerboard="0"
     inkscape:deskcolor="#d1d1d1"
     inkscape:zoom="2.0993393"
     inkscape:cx="181.00933"
     inkscape:cy="110.74913"
     inkscape:window-width="1916"
     inkscape:window-height="1048"
     inkscape:window-x="0"
     inkscape:window-y="28"
     inkscape:window-maximized="1"
     inkscape:current-layer="g43" /><title
     id="title1">Orange CU Cyber Logo (1)</title><g
     id="g43"><g
       id="g47"
       transform="translate(1.2576775,64.32586)"><path
         d="m 268.72,85.200145 a 4.83,4.83 0 1 1 4.75,-4.83 4.8,4.8 0 0 1 -4.75,4.83 z m 0,-7.63 a 2.79,2.79 0 1 0 2.62,2.78 2.7,2.7 0 0 0 -2.63,-2.78 z"
         style="fill:#33125d;fill-opacity:1;stroke:#ea6a20;stroke-width:1.21953px;stroke-miterlimit:10;stroke-opacity:1"
         id="path16" /><path
         d="m 408.64,326.5 a 4.84,4.84 0 1 1 4.74,-4.83 4.8,4.8 0 0 1 -4.74,4.83 z m 0,-7.64 a 2.8,2.8 0 1 0 2.61,2.79 2.71,2.71 0 0 0 -2.62,-2.79 z"
         style="fill:#33125d;fill-opacity:1;stroke:#ea6a20;stroke-width:1.21953px;stroke-miterlimit:10;stroke-opacity:1"
         id="path17"
         transform="translate(-153.91,-271.02)" /><path
         d="m 428.21,316.35 a 4.83,4.83 0 1 1 4.74,-4.83 4.8,4.8 0 0 1 -4.74,4.83 z m 0,-7.63 a 2.79,2.79 0 1 0 2.62,2.78 2.7,2.7 0 0 0 -2.64,-2.78 z"
         style="fill:#33125d;fill-opacity:1;stroke:#ea6a20;stroke-width:1.21953px;stroke-miterlimit:10;stroke-opacity:1"
         id="path18"
         transform="translate(-153.91,-271.02)" /><path
         d="m 428,301.37 a 4.83,4.83 0 1 1 4.75,-4.83 4.79,4.79 0 0 1 -4.75,4.83 z m 0,-7.63 a 2.79,2.79 0 1 0 2.62,2.79 2.71,2.71 0 0 0 -2.62,-2.79 z"
         style="fill:#33125d;fill-opacity:1;stroke:#ea6a20;stroke-width:1.21953px;stroke-miterlimit:10;stroke-opacity:1"
         id="path19"
         transform="translate(-153.91,-271.02)" /><path
         d="m 434.16,370.7 a 4.83,4.83 0 1 1 4.74,-4.83 4.8,4.8 0 0 1 -4.74,4.83 z m 0,-7.63 a 2.79,2.79 0 1 0 2.61,2.78 2.7,2.7 0 0 0 -2.62,-2.78 z"
         style="fill:#33125d;fill-opacity:1;stroke:#ea6a20;stroke-width:1.21953px;stroke-miterlimit:10;stroke-opacity:1"
         id="path28"
         transform="translate(-153.91,-271.02)" /><path
         d="m 404.2,401.62 a 4.83,4.83 0 1 1 4.75,-4.83 4.8,4.8 0 0 1 -4.75,4.83 z m 0,-7.63 a 2.79,2.79 0 1 0 2.62,2.78 2.7,2.7 0 0 0 -2.63,-2.77 z"
         style="fill:#33125d;fill-opacity:1;stroke:#ea6a20;stroke-width:1.21953px;stroke-miterlimit:10;stroke-opacity:1"
         id="path29"
         transform="translate(-153.91,-271.02)" /><path
         d="m 424,425.78 a 4.84,4.84 0 1 1 4.75,-4.84 4.8,4.8 0 0 1 -4.75,4.84 z m 0,-7.64 a 2.79,2.79 0 1 0 2.62,2.79 2.71,2.71 0 0 0 -2.62,-2.79 z"
         style="fill:#33125d;fill-opacity:1;stroke:#ea6a20;stroke-width:1.21953px;stroke-miterlimit:10;stroke-opacity:1"
         id="path30"
         transform="translate(-153.91,-271.02)" /><path
         d="m 423.53,411.28 a 4.83,4.83 0 1 1 4.74,-4.83 4.79,4.79 0 0 1 -4.74,4.83 z m 0,-7.63 a 2.79,2.79 0 1 0 2.61,2.78 2.7,2.7 0 0 0 -2.62,-2.78 z"
         style="fill:#33125d;fill-opacity:1;stroke:#ea6a20;stroke-width:1.21953px;stroke-miterlimit:10;stroke-opacity:1"
         id="path31"
         transform="translate(-153.91,-271.02)" /><polygon
         points="232.24,43.34 175.58,43.34 175.58,39.83 230.75,39.83 246.29,23.89 270.84,23.89 270.84,27.4 247.77,27.4 "
         style="fill:#33125d;fill-opacity:1"
         id="polygon7" /><polygon
         points="231.72,58.23 175.06,58.23 175.06,54.71 230.24,54.71 245.77,38.77 270.32,38.77 270.32,42.28 247.25,42.28 "
         style="fill:#33125d;fill-opacity:1"
         id="polygon8" /><polygon
         points="237.41,69.92 175.58,69.92 175.58,66.4 235.93,66.4 250.69,51.26 253.2,53.71 "
         style="fill:#33125d;fill-opacity:1"
         id="polygon9" /><polygon
         points="266.59,151.87 238.87,151.87 221.26,135.92 158.59,135.92 158.59,132.19 222.7,132.19 240.31,148.13 266.59,148.13 "
         style="fill:#33125d;fill-opacity:1"
         id="polygon10" /><polygon
         points="266.07,136.93 240.06,136.93 223.58,120.98 164.97,120.98 164.97,117.37 225.04,117.37 241.53,133.31 266.07,133.31 "
         style="fill:#33125d;fill-opacity:1"
         id="polygon11" /><polygon
         points="246.44,124.39 231.68,109.24 171.33,109.24 171.33,105.73 233.16,105.73 248.95,121.94 "
         style="fill:#33125d;fill-opacity:1"
         id="polygon12" /><g
         id="g13"
         style="fill:#33125d;fill-opacity:1"><path
           d="M 419.31,351.4"
           transform="translate(-153.91,-271.02)"
           style="fill:#33125d;fill-opacity:1"
           id="path12" /><path
           d="M 335.88,351.4"
           transform="translate(-153.91,-271.02)"
           style="fill:#33125d;fill-opacity:1"
           id="path13" /><rect
           x="181.97"
           y="78.599998"
           width="83.43"
           height="3.5599999"
           style="fill:#33125d;fill-opacity:1"
           id="rect13" /></g><g
         id="g15"
         style="fill:#33125d;fill-opacity:1"><path
           d="M 430.85,365.75"
           transform="translate(-153.91,-271.02)"
           style="fill:#33125d;fill-opacity:1"
           id="path14" /><path
           d="M 333.23,365.75"
           transform="translate(-153.91,-271.02)"
           style="fill:#33125d;fill-opacity:1"
           id="path15" /><rect
           x="179.32001"
           y="92.949997"
           width="97.629997"
           height="3.5599999"
           style="fill:#33125d;fill-opacity:1"
           id="rect15" /></g><path
         d="m 183.72,301.87 a 4.83,4.83 0 1 1 4.74,-4.83 4.79,4.79 0 0 1 -4.74,4.83 z m 0,-7.63 a 2.79,2.79 0 1 0 2.61,2.79 2.71,2.71 0 0 0 -2.62,-2.79 z"
         style="fill:#33125d;fill-opacity:1;stroke:#ea6a20;stroke-width:1.21953px;stroke-miterlimit:10;stroke-opacity:1"
         id="path20"
         transform="translate(-153.91,-271.02)" /><path
         d="m 184.2,316.13 a 4.84,4.84 0 1 1 4.75,-4.84 4.8,4.8 0 0 1 -4.75,4.84 z m 0,-7.64 a 2.79,2.79 0 1 0 2.62,2.79 2.71,2.71 0 0 0 -2.63,-2.79 z"
         style="fill:#33125d;fill-opacity:1;stroke:#ea6a20;stroke-width:1.21953px;stroke-miterlimit:10;stroke-opacity:1"
         id="path21"
         transform="translate(-153.91,-271.02)" /><path
         d="m 204,326.27 a 4.83,4.83 0 1 1 4.74,-4.83 4.8,4.8 0 0 1 -4.74,4.83 z m 0,-7.63 a 2.79,2.79 0 1 0 2.61,2.78 2.7,2.7 0 0 0 -2.61,-2.78 z"
         style="fill:#33125d;fill-opacity:1;stroke:#ea6a20;stroke-width:1.21953px;stroke-miterlimit:10;stroke-opacity:1"
         id="path22"
         transform="translate(-153.91,-271.02)" /><path
         d="m 175.5,370.72 a 4.83,4.83 0 1 1 4.75,-4.83 4.8,4.8 0 0 1 -4.75,4.83 z m 0,-7.64 a 2.8,2.8 0 1 0 2.62,2.79 2.71,2.71 0 0 0 -2.63,-2.79 z"
         style="fill:#33125d;fill-opacity:1;stroke:#ea6a20;stroke-width:1.21953px;stroke-miterlimit:10;stroke-opacity:1"
         id="path23"
         transform="translate(-153.91,-271.02)" /><path
         d="m 188.55,410.82 a 4.84,4.84 0 1 1 4.74,-4.84 4.8,4.8 0 0 1 -4.74,4.84 z m 0,-7.64 a 2.79,2.79 0 1 0 2.61,2.79 2.71,2.71 0 0 0 -2.62,-2.79 z"
         style="fill:#33125d;fill-opacity:1;stroke:#ea6a20;stroke-width:1.21953px;stroke-miterlimit:10;stroke-opacity:1"
         id="path24"
         transform="translate(-153.91,-271.02)" /><path
         d="m 188.19,426.21 a 4.83,4.83 0 1 1 4.74,-4.83 4.79,4.79 0 0 1 -4.74,4.83 z m 0,-7.63 a 2.79,2.79 0 1 0 2.61,2.79 2.71,2.71 0 0 0 -2.62,-2.79 z"
         style="fill:#33125d;fill-opacity:1;stroke:#ea6a20;stroke-width:1.21953px;stroke-miterlimit:10;stroke-opacity:1"
         id="path25"
         transform="translate(-153.91,-271.02)" /><path
         d="m 208.11,401.58 a 4.84,4.84 0 1 1 4.75,-4.84 4.8,4.8 0 0 1 -4.75,4.84 z m 0,-7.64 a 2.79,2.79 0 1 0 2.62,2.79 2.71,2.71 0 0 0 -2.63,-2.79 z"
         style="fill:#33125d;fill-opacity:1;stroke:#ea6a20;stroke-width:1.21953px;stroke-miterlimit:10;stroke-opacity:1"
         id="path26"
         transform="translate(-153.91,-271.02)" /><path
         d="m 35.089998,85.2 a 4.83,4.83 0 1 1 4.75,-4.83 4.79,4.79 0 0 1 -4.75,4.83 z m 0,-7.63 a 2.79,2.79 0 1 0 2.62,2.79 2.71,2.71 0 0 0 -2.62,-2.79 z"
         style="fill:#33125d;fill-opacity:1;stroke:#ea6a20;stroke-width:1.21953px;stroke-miterlimit:10;stroke-opacity:1"
         id="path27" /><polygon
         points="128.6,43.34 71.94,43.34 56.41,27.4 33.34,27.4 33.34,23.89 57.89,23.89 73.42,39.83 128.6,39.83 "
         style="fill:#33125d;fill-opacity:1"
         id="polygon31" /><polygon
         points="129.11,58.23 72.46,58.23 56.93,42.28 33.86,42.28 33.86,38.77 58.41,38.77 73.94,54.71 129.11,54.71 "
         style="fill:#33125d;fill-opacity:1"
         id="polygon32" /><polygon
         points="128.6,69.92 66.77,69.92 50.98,53.71 53.49,51.26 68.25,66.4 128.6,66.4 "
         style="fill:#33125d;fill-opacity:1"
         id="polygon33" /><polygon
         points="65.31,151.87 37.59,151.87 37.59,148.13 63.87,148.13 81.48,132.19 145.59,132.19 145.59,135.92 82.92,135.92 "
         style="fill:#33125d;fill-opacity:1"
         id="polygon34" /><polygon
         points="64.11,136.93 38.11,136.93 38.11,133.31 62.65,133.31 79.14,117.37 139.21,117.37 139.21,120.98 80.6,120.98 "
         style="fill:#33125d;fill-opacity:1"
         id="polygon35" /><polygon
         points="57.74,124.39 55.23,121.94 71.02,105.73 132.85,105.73 132.85,109.24 72.5,109.24 "
         style="fill:#33125d;fill-opacity:1"
         id="polygon36" /><g
         id="g37"
         style="fill:#33125d;fill-opacity:1"><path
           d="M 192.69,351.4"
           transform="translate(-153.91,-271.02)"
           style="fill:#33125d;fill-opacity:1"
           id="path36" /><path
           d="M 276.12,351.4"
           transform="translate(-153.91,-271.02)"
           style="fill:#33125d;fill-opacity:1"
           id="path37" /><rect
           x="38.779999"
           y="78.599998"
           width="83.43"
           height="3.5599999"
           style="fill:#33125d;fill-opacity:1"
           id="rect37" /></g><g
         id="g39"
         style="fill:#33125d;fill-opacity:1"><path
           d="M 179.26,365.75"
           transform="translate(-153.91,-271.02)"
           style="fill:#33125d;fill-opacity:1"
           id="path38" /><path
           d="M 278.77,365.75"
           transform="translate(-153.91,-271.02)"
           style="fill:#33125d;fill-opacity:1"
           id="path39" /><rect
           x="25.35"
           y="92.949997"
           width="99.510002"
           height="3.5599999"
           style="fill:#33125d;fill-opacity:1"
           id="rect39" /></g><path
         d="m 305.09,446.53 a 7,7 0 0 1 -2.81,-0.62 45.29,45.29 0 0 1 -10.94,-7.33 c -3.47,-3 -8,-6.89 -12.36,-11.05 -3.06,-2.94 -6.14,-6.21 -9.42,-10 -3.65,-4.23 -6.79,-8.14 -9.6,-11.94 -2.81,-3.8 -5.57,-7.9 -8.4,-12.48 -2,-3.24 -3.68,-6.57 -5.36,-10 -1.49,-3.05 -2.87,-6.18 -4.1,-9.31 -1,-2.66 -1.87,-5.4 -2.66,-8 -1,-3.27 -1.77,-6.14 -2.45,-8.88 -1,-3.85 -1.63,-6.84 -2.17,-9.69 -0.83,-4.3 -1.59,-8.7 -2.34,-13.45 a 88.31,88.31 0 0 1 -0.83,-14.44 c 0,-1.25 0,-2.5 0,-3.75 0,-1.25 -0.06,-2.3 -0.05,-3.45 0,-3.05 0.06,-6.24 0.15,-9.73 0,-0.73 0,-2.77 0,-2.77 l -0.05,-2.45 2.35,-0.68 1.73,-0.5 c 1.5,-0.41 3,-0.77 4.52,-1.14 1.76,-0.43 3.59,-0.88 5.33,-1.37 2.92,-0.83 6.77,-2 10.56,-3.31 7.51,-2.68 14.3,-5.19 20.74,-7.68 2.47,-1 5,-2.09 7.39,-3.19 1,-0.44 1.92,-0.88 2.89,-1.3 l 6,-2.69 5.12,-2.3 a 31.76,31.76 0 0 1 3,-1.29 10.83,10.83 0 0 1 7.67,0 c 2.12,0.84 4.19,1.79 6.19,2.71 l 3.15,1.44 1.55,0.68 c 3.75,1.66 7.63,3.38 11.46,5 l 0.76,0.32 c 3.48,1.47 7.07,3 10.63,4.29 4.7,1.7 10.92,3.91 17.3,5.89 2.87,0.89 5.87,1.66 8.77,2.42 1.95,0.5 3.9,1 5.83,1.55 0.46,0.13 1.68,0.4 1.69,0.4 l 2.49,0.57 v 2.55 c 0,1.14 0,4.38 0.09,5.7 0.13,2 0.19,4 0.24,5.95 0,0.82 0,1.63 0.08,2.42 v 0.22 c 0,0.94 -0.05,1.88 -0.07,2.81 0,2.07 -0.09,4.22 -0.25,6.35 -0.23,3.15 -0.59,6.32 -1.07,9.43 L 377.6,334 c -0.81,5.22 -1.64,10.61 -2.71,15.9 a 157.77,157.77 0 0 1 -5.74,21.31 c -1.05,3 -2.36,5.95 -3.63,8.78 -0.39,0.88 -0.79,1.76 -1.17,2.65 a 101.66,101.66 0 0 1 -8.75,15.54 c -2.36,3.56 -5.05,7.24 -8.72,11.93 -2.6,3.34 -5.48,6.75 -8.56,10.15 a 153.38,153.38 0 0 1 -15.57,15.15 l -1.35,1.14 c -1.89,1.58 -3.84,3.23 -5.89,4.75 a 34.59,34.59 0 0 1 -7.64,4.69 7.36,7.36 0 0 1 -2.78,0.54 z"
         style="fill:#33125d;fill-opacity:1"
         id="path40"
         transform="translate(-153.91,-271.02)" /><path
         d="m 367.16,300.65 c -3,-0.77 -6.05,-1.57 -9.06,-2.5 -6.51,-2 -12.82,-4.26 -17.58,-6 -3.73,-1.35 -7.4,-2.9 -10.95,-4.41 l -0.76,-0.32 c -3.88,-1.64 -7.78,-3.37 -11.56,-5 l -1.54,-0.68 c -1.09,-0.48 -2.17,-1 -3.25,-1.47 -2,-0.93 -3.9,-1.8 -5.86,-2.58 a 4.65,4.65 0 0 0 -3.21,0.08 c -0.8,0.28 -1.62,0.66 -2.49,1.06 l -5.16,2.33 -6,2.69 -2.83,1.28 c -2.5,1.14 -5.09,2.32 -7.74,3.34 -6.49,2.51 -13.33,5 -20.89,7.74 -4,1.41 -7.95,2.58 -11,3.43 -1.85,0.53 -3.73,1 -5.55,1.43 -1.22,0.3 -2.44,0.6 -3.65,0.92 0,0.23 0,0.43 0,0.59 -0.09,3.44 -0.13,6.57 -0.14,9.58 0,1.09 0,2.18 0.05,3.27 0,1.33 0.06,2.66 0,4 a 80.08,80.08 0 0 0 0.75,13.37 c 0.74,4.69 1.49,9 2.3,13.25 0.53,2.73 1.17,5.62 2.1,9.35 0.65,2.64 1.42,5.41 2.34,8.48 0.82,2.74 1.57,5.23 2.52,7.65 1.16,3 2.47,5.94 3.89,8.83 l 0.24,0.49 c 12.36,-7.52 108.75,-72.1 120,-78.83 -1.64,-0.5 -3.31,-0.94 -4.97,-1.37 z"
         transform="translate(-153.91,-271.02)"
         style="fill:#5e3193;fill-opacity:1"
         id="path41" /><path
         style="fill:#ea6a20;fill-opacity:1;stroke:#5e3193;stroke-width:0.202752;stroke-opacity:1"
         d="m 105.03986,32.567645 c 0.31159,-1.225797 2.10376,-3.01 3.36974,-3.354719 0.94479,-0.257274 3.7098,-0.104195 4.38024,0.242516 0.28439,0.147067 0.96421,0.714512 1.51068,1.260999 1.05308,1.053074 1.40849,1.789647 1.60923,3.33503 0.0984,0.757048 0.19238,0.882548 2.1773,2.905587 4.00044,4.015182 12.14532,11.899775 12.14532,11.899775 0,0 13.31119,-13.175065 13.87936,-12.960867 -1.07412,3.865743 -3.7895,11.448081 -3.7895,11.448081 l -3.53944,3.560229 61.00089,60.688064 1.45329,11.47195 -11.45474,-1.74066 -60.91316,-60.505465 -3.40613,3.395582 -11.60385,3.78128 -0.16359,-0.152218 13.1464,-13.481161 c 0,0 -13.65254,-13.71416 -13.89646,-13.882736 -0.28198,-0.194857 -1.02055,-0.495017 -1.64126,-0.667026 -1.45964,-0.404486 -1.92078,-0.65195 -2.87062,-1.540392 -1.17669,-1.100675 -1.42716,-1.706581 -1.48274,-3.587049 -0.0258,-0.870339 0.0146,-1.822914 0.089,-2.1168 z"
         id="path44"
         sodipodi:nodetypes="csssssccccccccccccssssc" /><path
         style="fill:#ea6a20;fill-opacity:1;stroke:#5e3193;stroke-width:0.202752;stroke-opacity:1"
         d="m 195.59663,29.024147 c 1.2258,0.31159 3.01,2.10376 3.35472,3.36974 0.25728,0.94479 0.1042,3.7098 -0.24251,4.38024 -0.14707,0.28439 -0.71452,0.96421 -1.261,1.51068 -1.05308,1.05308 -1.78965,1.40849 -3.33503,1.60923 -0.75705,0.0984 -0.88255,0.19238 -2.90559,2.1773 -4.01518,4.00044 -11.89977,12.14532 -11.89977,12.14532 0,0 13.17506,13.31119 12.96086,13.87936 -3.86574,-1.07412 -11.44808,-3.7895 -11.44808,-3.7895 l -3.56023,-3.53944 -60.68806,61.000893 -11.47195,1.45329 1.74066,-11.45474 60.50546,-60.913163 -3.39558,-3.40613 -3.78128,-11.60385 0.15222,-0.16359 13.48116,13.1464 c 0,0 13.71416,-13.65254 13.88274,-13.89646 0.19485,-0.28198 0.49501,-1.02055 0.66702,-1.64126 0.40449,-1.45964 0.65195,-1.92078 1.54039,-2.87062 1.10068,-1.17669 1.70659,-1.42716 3.58705,-1.48274 0.87034,-0.0258 1.82292,0.0146 2.1168,0.089 z"
         id="path45"
         sodipodi:nodetypes="csssssccccccccccccssssc" /></g></g><metadata
     id="metadata47"><rdf:RDF><cc:Work
         rdf:about=""><dc:title>Orange CU Cyber Logo (1)</dc:title></cc:Work></rdf:RDF></metadata></svg>
